<svg width="32" height="24" viewBox="0 0 32 24" fill="none" xmlns="http://www.w3.org/2000/svg">
<path d="M18.3067 21C18.0723 21.3031 17.7358 21.5547 17.331 21.7295C16.9262 21.9044 16.4672 21.9965 16 21.9965C15.5329 21.9965 15.0739 21.9044 14.6691 21.7295C14.2642 21.5547 13.9278 21.3031 13.6934 21" stroke="#A28BFE" stroke-width="2" stroke-linecap="round" stroke-linejoin="round"/>
<path d="M9 10C9 6.13401 12.134 3 16 3V3C19.866 3 23 6.13401 23 10V16.5C23 16.9659 23 17.1989 22.9239 17.3827C22.8224 17.6277 22.6277 17.8224 22.3827 17.9239C22.1989 18 21.9659 18 21.5 18H10.5C10.0341 18 9.80109 18 9.61732 17.9239C9.37229 17.8224 9.17761 17.6277 9.07612 17.3827C9 17.1989 9 16.9659 9 16.5V10Z" stroke="#A28BFE" stroke-width="2" stroke-linecap="round"/>
</svg>
