<svg width="78" height="78" viewBox="0 0 78 78" fill="none" xmlns="http://www.w3.org/2000/svg">
<path d="M74 35.8V39.02C73.9957 46.5675 71.5517 53.9114 67.0327 59.9564C62.5136 66.0014 56.1615 70.4237 48.9237 72.5637C41.686 74.7036 33.9504 74.4467 26.8706 71.8311C19.7909 69.2154 13.7463 64.3814 9.63836 58.0497C5.53043 51.7181 3.57927 44.2282 4.07587 36.6971C4.57247 29.166 7.49022 21.9972 12.394 16.2598C17.2977 10.5224 23.9247 6.52387 31.2867 4.86054C38.6486 3.19722 46.3509 3.95821 53.245 7.03003M74 11.0201L41.8284 43.2238C40.4951 44.5584 39.8285 45.2257 38.9998 45.2259C38.1711 45.2261 37.5041 44.5592 36.1701 43.2252L28.5 35.5551" stroke="#A28BFE" stroke-width="8" stroke-linecap="round" stroke-linejoin="round"/>
</svg>
