<svg width="14" height="18" viewBox="0 0 14 18" fill="none" xmlns="http://www.w3.org/2000/svg">
<path d="M12.2563 4.13514H11.3391C10.4238 4.18495 9.63942 3.51041 9.58531 2.62703V2.54919C9.55938 2.12312 9.35876 1.72456 9.02778 1.44158C8.69681 1.15859 8.26273 1.01448 7.82145 1.04108H1.51188V0.72973C1.51188 0.326711 1.17343 0 0.75594 0C0.338446 0 0 0.326711 0 0.72973V17.2703C0 17.6733 0.338446 18 0.75594 18C1.17343 18 1.51188 17.6733 1.51188 17.2703V9.21405H2.69114C3.6064 9.16424 4.39082 9.83878 4.44492 10.7222V10.7805C4.49903 11.6639 5.28345 12.3385 6.1987 12.2886H12.2462C13.1615 12.3385 13.9459 11.6639 14 10.7805V5.62378C13.9302 4.75462 13.1585 4.09577 12.2563 4.13514Z" fill="#A28BFE"/>
</svg>
