<svg xmlns="http://www.w3.org/2000/svg" width="24" height="24" viewBox="0 0 24 24" fill="none">
  <path d="M3 12.9915C3 10.796 3 9.69824 3.51122 8.78671C4.02244 7.87518 4.95776 7.30359 6.8284 6.16042L7.8284 5.54931C9.85916 4.30829 10.8745 3.68778 12 3.68778C13.1255 3.68778 14.1408 4.30829 16.1716 5.54931L17.1716 6.16042C19.0422 7.30359 19.9776 7.87518 20.4888 8.78671C21 9.69824 21 10.796 21 12.9915V12.9915C21 16.7684 21 18.6569 19.8284 19.8284C18.6569 21 16.7712 21 13 21H11C7.22876 21 5.34315 21 4.17157 19.8284C3 18.6569 3 16.7684 3 12.9915V12.9915Z" stroke="white" stroke-width="2" stroke-linecap="round"/>
  <path d="M9 20V16C9 15.0681 9 14.6022 9.15224 14.2346C9.35523 13.7446 9.74458 13.3552 10.2346 13.1522C10.6022 13 11.0681 13 12 13V13C12.9319 13 13.3978 13 13.7654 13.1522C14.2554 13.3552 14.6448 13.7446 14.8478 14.2346C15 14.6022 15 15.0681 15 16V20" stroke="white" stroke-width="2" stroke-linecap="round"/>
</svg>