<svg width="274" height="274" viewBox="0 0 274 274" fill="none" xmlns="http://www.w3.org/2000/svg">
<path d="M196.632 45.5032C170.461 26.6892 125.784 21.829 102.492 29.684C60.4428 43.8646 53.6926 71.4263 54.1606 96.0649C54.6285 120.703 86.1933 141.86 94.5991 163.398C103.005 184.936 118.425 213.883 148.196 205.016C177.967 196.148 176.691 164.093 185.711 142.445C194.731 120.798 218.322 98.6033 217.044 78.7339C216.151 64.8602 208.199 53.8191 196.632 45.5032Z" fill="#A28BFE"/>
<path opacity="0.7" d="M196.632 45.5032C170.461 26.6892 125.784 21.829 102.492 29.684C60.4428 43.8646 53.6926 71.4263 54.1606 96.0649C54.6285 120.703 86.1933 141.86 94.5991 163.398C103.005 184.936 118.425 213.883 148.196 205.016C177.967 196.148 176.691 164.093 185.711 142.445C194.731 120.798 218.322 98.6033 217.044 78.7339C216.151 64.8602 208.199 53.8191 196.632 45.5032Z" fill="white"/>
<path opacity="0.2" d="M125.271 125.276H53.28C50.6929 125.276 48.5957 123.179 48.5957 120.592V68.6404C48.5957 66.0532 50.6929 63.9561 53.28 63.9561H125.271C127.858 63.9561 129.955 66.0532 129.955 68.6404V120.592C129.955 123.179 127.858 125.276 125.271 125.276Z" fill="black"/>
<path d="M123.255 122.052H51.2644C48.6773 122.052 46.5801 119.954 46.5801 117.367V65.4159C46.5801 62.8288 48.6773 60.7316 51.2644 60.7316H123.255C125.842 60.7316 127.939 62.8288 127.939 65.4159V117.367C127.939 119.954 125.842 122.052 123.255 122.052Z" fill="white" stroke="#263238" stroke-miterlimit="10" stroke-linecap="round" stroke-linejoin="round"/>
<path d="M72.8929 88.764L55.4884 94.4188C52.3654 84.8063 57.6256 74.4825 67.2381 71.3589C69.1605 70.7342 70.8719 70.4635 72.8929 70.4635V88.764Z" fill="#A28BFE" stroke="#263238" stroke-miterlimit="10" stroke-linecap="round" stroke-linejoin="round"/>
<path d="M72.8928 88.7639L83.6495 103.569C75.4727 109.51 64.0283 107.697 58.0874 99.5206C56.8994 97.8854 56.1125 96.3417 55.4883 94.4193L72.8928 88.7639Z" fill="white" stroke="#263238" stroke-miterlimit="10" stroke-linecap="round" stroke-linejoin="round"/>
<path d="M72.8926 88.764L90.2971 83.1086C92.7954 90.7987 90.1902 98.8165 83.6493 103.569L72.8926 88.764Z" fill="#263238" stroke="#263238" stroke-miterlimit="10" stroke-linecap="round" stroke-linejoin="round"/>
<path d="M72.8926 88.764V70.4635C80.9783 70.4635 87.7987 75.4191 90.2971 83.1086L72.8926 88.764Z" fill="white" stroke="#263238" stroke-miterlimit="10" stroke-linecap="round" stroke-linejoin="round"/>
<path d="M72.9113 100.174C79.2125 100.174 84.3207 95.0657 84.3207 88.7645C84.3207 82.4633 79.2125 77.3551 72.9113 77.3551C66.6101 77.3551 61.502 82.4633 61.502 88.7645C61.502 95.0657 66.6101 100.174 72.9113 100.174Z" fill="white" stroke="#263238" stroke-miterlimit="10" stroke-linecap="round" stroke-linejoin="round"/>
<path d="M121.41 69.3538H96.3398V71.4279H121.41V69.3538Z" fill="#A28BFE" stroke="#263238" stroke-miterlimit="10" stroke-linecap="round" stroke-linejoin="round"/>
<path d="M116.019 73.7986H96.3398V75.8728H116.019V73.7986Z" fill="#263238" stroke="#263238" stroke-miterlimit="10" stroke-linecap="round" stroke-linejoin="round"/>
<path d="M110.802 78.244H96.3398V80.3182H110.802V78.244Z" fill="white" stroke="#263238" stroke-miterlimit="10" stroke-linecap="round" stroke-linejoin="round"/>
<path d="M116.889 82.6893H96.3398V84.7635H116.889V82.6893Z" fill="#A28BFE" stroke="#263238" stroke-miterlimit="10" stroke-linecap="round" stroke-linejoin="round"/>
<path d="M106.107 87.1342H96.3398V89.2083H106.107V87.1342Z" fill="#263238" stroke="#263238" stroke-miterlimit="10" stroke-linecap="round" stroke-linejoin="round"/>
<path d="M121.41 91.5796H96.3398V93.6543H121.41V91.5796Z" fill="white" stroke="#263238" stroke-miterlimit="10" stroke-linecap="round" stroke-linejoin="round"/>
<path d="M114.802 96.0244H96.3398V98.0991H114.802V96.0244Z" fill="#A28BFE" stroke="#263238" stroke-miterlimit="10" stroke-linecap="round" stroke-linejoin="round"/>
<path d="M112.473 100.47H96.3398V102.544H112.473V100.47Z" fill="#263238" stroke="#263238" stroke-miterlimit="10" stroke-linecap="round" stroke-linejoin="round"/>
<path d="M121.41 104.915H96.3398V106.989H121.41V104.915Z" fill="white" stroke="#263238" stroke-miterlimit="10" stroke-linecap="round" stroke-linejoin="round"/>
<path d="M63.5762 110.97H83.0126" stroke="#263238" stroke-miterlimit="10" stroke-linecap="round" stroke-linejoin="round"/>
<path d="M60.8281 113.71H85.7621" stroke="#263238" stroke-miterlimit="10" stroke-linecap="round" stroke-linejoin="round"/>
<path d="M97.0039 110.97H116.44" stroke="#263238" stroke-miterlimit="10" stroke-linecap="round" stroke-linejoin="round"/>
<path d="M94.2559 113.71H119.19" stroke="#263238" stroke-miterlimit="10" stroke-linecap="round" stroke-linejoin="round"/>
<path opacity="0.2" d="M125.674 204.517H63.8445C61.2574 204.517 59.1602 202.42 59.1602 199.833V155.541C59.1602 152.953 61.2574 150.856 63.8445 150.856H125.674C128.261 150.856 130.358 152.953 130.358 155.541V199.833C130.358 202.42 128.261 204.517 125.674 204.517Z" fill="black"/>
<path d="M123.256 201.696H61.4265C58.8394 201.696 56.7422 199.599 56.7422 197.012V152.719C56.7422 150.132 58.8394 148.035 61.4265 148.035H123.256C125.843 148.035 127.94 150.132 127.94 152.719V197.012C127.94 199.599 125.843 201.696 123.256 201.696Z" fill="white" stroke="#263238" stroke-miterlimit="10" stroke-linecap="round" stroke-linejoin="round"/>
<path d="M61.6211 173.547H71.1179" stroke="#263238" stroke-miterlimit="10" stroke-linecap="round" stroke-linejoin="round"/>
<path d="M61.6211 175.692H76.639" stroke="#263238" stroke-miterlimit="10" stroke-linecap="round" stroke-linejoin="round"/>
<path d="M61.6211 177.837H71.1179" stroke="#263238" stroke-miterlimit="10" stroke-linecap="round" stroke-linejoin="round"/>
<path d="M61.6211 179.981H75.3178" stroke="#263238" stroke-miterlimit="10" stroke-linecap="round" stroke-linejoin="round"/>
<path d="M61.6211 182.125H71.1179" stroke="#263238" stroke-miterlimit="10" stroke-linecap="round" stroke-linejoin="round"/>
<path d="M61.6211 184.27H78.4003" stroke="#263238" stroke-miterlimit="10" stroke-linecap="round" stroke-linejoin="round"/>
<path d="M85.4023 173.547H94.8997" stroke="#263238" stroke-miterlimit="10" stroke-linecap="round" stroke-linejoin="round"/>
<path d="M85.4023 175.692H100.421" stroke="#263238" stroke-miterlimit="10" stroke-linecap="round" stroke-linejoin="round"/>
<path d="M85.4023 177.837H94.8997" stroke="#263238" stroke-miterlimit="10" stroke-linecap="round" stroke-linejoin="round"/>
<path d="M85.4023 179.981H99.0996" stroke="#263238" stroke-miterlimit="10" stroke-linecap="round" stroke-linejoin="round"/>
<path d="M85.4023 182.125H94.8997" stroke="#263238" stroke-miterlimit="10" stroke-linecap="round" stroke-linejoin="round"/>
<path d="M85.4023 184.27H102.182" stroke="#263238" stroke-miterlimit="10" stroke-linecap="round" stroke-linejoin="round"/>
<path d="M109.184 173.547H118.68" stroke="#263238" stroke-miterlimit="10" stroke-linecap="round" stroke-linejoin="round"/>
<path d="M109.184 175.692H124.202" stroke="#263238" stroke-miterlimit="10" stroke-linecap="round" stroke-linejoin="round"/>
<path d="M109.184 177.837H118.68" stroke="#263238" stroke-miterlimit="10" stroke-linecap="round" stroke-linejoin="round"/>
<path d="M109.184 179.981H122.88" stroke="#263238" stroke-miterlimit="10" stroke-linecap="round" stroke-linejoin="round"/>
<path d="M109.184 182.125H118.68" stroke="#263238" stroke-miterlimit="10" stroke-linecap="round" stroke-linejoin="round"/>
<path d="M109.184 184.27H125.963" stroke="#263238" stroke-miterlimit="10" stroke-linecap="round" stroke-linejoin="round"/>
<path d="M79.3888 166.502H61.0078V170.178H79.3888V166.502Z" fill="#263238"/>
<path d="M103.59 166.502H85.209V170.178H103.59V166.502Z" fill="#263238"/>
<path d="M127.791 166.502H109.41V170.178H127.791V166.502Z" fill="#263238"/>
<path d="M82.2539 166.284V184.891" stroke="#263238" stroke-miterlimit="10" stroke-linecap="round" stroke-linejoin="round"/>
<path d="M106.256 166.284V184.891" stroke="#263238" stroke-miterlimit="10" stroke-linecap="round" stroke-linejoin="round"/>
<path d="M68.5125 157.786L72.491 156.493C73.2051 158.69 72.0028 161.05 69.8053 161.764C67.6083 162.478 65.2481 161.275 64.5341 159.078C63.82 156.881 65.0223 154.521 67.2198 153.807C67.6593 153.665 68.0506 153.602 68.5125 153.602V157.786Z" fill="#A28BFE" stroke="#263238" stroke-width="0.5" stroke-miterlimit="10"/>
<path d="M68.5117 157.786V153.602C70.3601 153.602 71.9192 154.735 72.4902 156.493L68.5117 157.786Z" fill="#263238" stroke="#263238" stroke-width="0.5" stroke-miterlimit="10"/>
<path d="M108.782 157.786L112.761 156.493C113.475 158.69 112.272 161.05 110.075 161.764C107.877 162.478 105.518 161.275 104.804 159.078C104.09 156.881 105.292 154.521 107.489 153.807C107.929 153.665 108.32 153.602 108.782 153.602V157.786Z" fill="#A28BFE" stroke="#263238" stroke-width="0.5" stroke-miterlimit="10"/>
<path d="M108.781 157.786V153.602C110.63 153.602 112.189 154.735 112.76 156.493L108.781 157.786Z" fill="#263238" stroke="#263238" stroke-width="0.5" stroke-miterlimit="10"/>
<path d="M81.9354 157.786V161.969C79.625 161.969 77.752 160.096 77.752 157.786C77.752 155.475 79.625 153.602 81.9354 153.602V157.786Z" fill="#A28BFE" stroke="#263238" stroke-width="0.5" stroke-miterlimit="10"/>
<path d="M81.9355 157.786V153.602C84.2459 153.602 86.1184 155.475 86.1184 157.786C86.1184 160.096 84.2454 161.969 81.9355 161.969V157.786Z" fill="#263238" stroke="#263238" stroke-width="0.5" stroke-miterlimit="10"/>
<path d="M95.3582 157.786L99.3367 159.078C98.6227 161.275 96.263 162.478 94.0655 161.764C91.868 161.05 90.6657 158.69 91.3798 156.493C91.9508 154.735 93.5098 153.602 95.3582 153.602V157.786Z" fill="#A28BFE" stroke="#263238" stroke-width="0.5" stroke-miterlimit="10"/>
<path d="M95.3574 157.786V153.602C97.6678 153.602 99.5409 155.475 99.5409 157.786C99.5409 158.248 99.4789 158.639 99.3359 159.078L95.3574 157.786Z" fill="#263238" stroke="#263238" stroke-width="0.5" stroke-miterlimit="10"/>
<path d="M122.204 157.786L126.182 159.078C125.468 161.275 123.109 162.478 120.911 161.764C118.714 161.05 117.511 158.69 118.225 156.493C118.796 154.735 120.356 153.602 122.204 153.602V157.786Z" fill="#A28BFE" stroke="#263238" stroke-width="0.5" stroke-miterlimit="10"/>
<path d="M122.203 157.786V153.602C124.513 153.602 126.387 155.475 126.387 157.786C126.387 158.248 126.325 158.639 126.182 159.078L122.203 157.786Z" fill="#263238" stroke="#263238" stroke-width="0.5" stroke-miterlimit="10"/>
<path d="M123.026 195.749H119.367V196.986H123.026V195.749Z" fill="#A28BFE" stroke="#263238" stroke-width="0.75" stroke-miterlimit="10" stroke-linecap="round" stroke-linejoin="round"/>
<path d="M118.962 189.559H115.303V196.986H118.962V189.559Z" fill="#263238" stroke="#263238" stroke-width="0.75" stroke-miterlimit="10" stroke-linecap="round" stroke-linejoin="round"/>
<path d="M114.895 192.225H111.236V196.986H114.895V192.225Z" fill="white" stroke="#263238" stroke-width="0.75" stroke-miterlimit="10" stroke-linecap="round" stroke-linejoin="round"/>
<path d="M110.831 188.512H107.172V196.986H110.831V188.512Z" fill="#A28BFE" stroke="#263238" stroke-width="0.75" stroke-miterlimit="10" stroke-linecap="round" stroke-linejoin="round"/>
<path d="M106.764 194.796H103.105V196.986H106.764V194.796Z" fill="#263238" stroke="#263238" stroke-width="0.75" stroke-miterlimit="10" stroke-linecap="round" stroke-linejoin="round"/>
<path d="M102.7 194.13H99.041V196.986H102.7V194.13Z" fill="white" stroke="#263238" stroke-width="0.75" stroke-miterlimit="10" stroke-linecap="round" stroke-linejoin="round"/>
<path d="M98.6336 191.274H94.9746V196.987H98.6336V191.274Z" fill="#A28BFE" stroke="#263238" stroke-width="0.75" stroke-miterlimit="10" stroke-linecap="round" stroke-linejoin="round"/>
<path d="M94.5692 196.034H90.9102V196.986H94.5692V196.034Z" fill="#263238" stroke="#263238" stroke-width="0.75" stroke-miterlimit="10" stroke-linecap="round" stroke-linejoin="round"/>
<path d="M90.5027 189.559H86.8438V196.986H90.5027V189.559Z" fill="white" stroke="#263238" stroke-width="0.75" stroke-miterlimit="10" stroke-linecap="round" stroke-linejoin="round"/>
<path d="M86.4383 190.988H82.7793V196.986H86.4383V190.988Z" fill="#A28BFE" stroke="#263238" stroke-width="0.75" stroke-miterlimit="10" stroke-linecap="round" stroke-linejoin="round"/>
<path d="M82.3719 196.701H78.7129V196.986H82.3719V196.701Z" fill="#263238" stroke="#263238" stroke-width="0.75" stroke-miterlimit="10" stroke-linecap="round" stroke-linejoin="round"/>
<path d="M78.3055 196.606H74.6465V196.987H78.3055V196.606Z" fill="white" stroke="#263238" stroke-width="0.75" stroke-miterlimit="10" stroke-linecap="round" stroke-linejoin="round"/>
<path d="M74.241 192.225H70.582V196.986H74.241V192.225Z" fill="#A28BFE" stroke="#263238" stroke-width="0.75" stroke-miterlimit="10" stroke-linecap="round" stroke-linejoin="round"/>
<path d="M70.1766 196.034H66.5176V196.986H70.1766V196.034Z" fill="#263238" stroke="#263238" stroke-width="0.75" stroke-miterlimit="10" stroke-linecap="round" stroke-linejoin="round"/>
<path d="M66.1102 195.082H62.4512V196.987H66.1102V195.082Z" fill="white" stroke="#263238" stroke-width="0.75" stroke-miterlimit="10" stroke-linecap="round" stroke-linejoin="round"/>
<path opacity="0.2" d="M221.909 165.715H149.919C147.332 165.715 145.234 163.617 145.234 161.03V109.079C145.234 106.492 147.332 104.395 149.919 104.395H221.909C224.497 104.395 226.594 106.492 226.594 109.079V161.03C226.594 163.617 224.497 165.715 221.909 165.715Z" fill="black"/>
<path d="M219.089 162.491H147.098C144.511 162.491 142.414 160.394 142.414 157.806V105.855C142.414 103.268 144.511 101.171 147.098 101.171H219.089C221.676 101.171 223.773 103.268 223.773 105.855V157.806C223.773 160.394 221.676 162.491 219.089 162.491Z" fill="white" stroke="#263238" stroke-miterlimit="10" stroke-linecap="round" stroke-linejoin="round"/>
<path d="M218.652 149.147H214.432V153.826H218.652V149.147Z" fill="#A28BFE" stroke="#263238" stroke-width="0.75" stroke-miterlimit="10" stroke-linecap="round" stroke-linejoin="round"/>
<path d="M213.962 125.752H209.742V153.827H213.962V125.752Z" fill="#263238" stroke="#263238" stroke-width="0.75" stroke-miterlimit="10" stroke-linecap="round" stroke-linejoin="round"/>
<path d="M209.273 135.83H205.053V153.826H209.273V135.83Z" fill="white" stroke="#263238" stroke-width="0.75" stroke-miterlimit="10" stroke-linecap="round" stroke-linejoin="round"/>
<path d="M204.583 121.793H200.363V153.826H204.583V121.793Z" fill="#A28BFE" stroke="#263238" stroke-width="0.75" stroke-miterlimit="10" stroke-linecap="round" stroke-linejoin="round"/>
<path d="M199.894 145.548H195.674V153.826H199.894V145.548Z" fill="#263238" stroke="#263238" stroke-width="0.75" stroke-miterlimit="10" stroke-linecap="round" stroke-linejoin="round"/>
<path d="M195.205 143.029H190.984V153.826H195.205V143.029Z" fill="white" stroke="#263238" stroke-width="0.75" stroke-miterlimit="10" stroke-linecap="round" stroke-linejoin="round"/>
<path d="M190.515 132.231H186.295V153.826H190.515V132.231Z" fill="#A28BFE" stroke="#263238" stroke-width="0.75" stroke-miterlimit="10" stroke-linecap="round" stroke-linejoin="round"/>
<path d="M185.826 150.227H181.605V153.826H185.826V150.227Z" fill="#263238" stroke="#263238" stroke-width="0.75" stroke-miterlimit="10" stroke-linecap="round" stroke-linejoin="round"/>
<path d="M181.136 125.752H176.916V153.827H181.136V125.752Z" fill="white" stroke="#263238" stroke-width="0.75" stroke-miterlimit="10" stroke-linecap="round" stroke-linejoin="round"/>
<path d="M176.447 131.151H172.227V153.827H176.447V131.151Z" fill="#A28BFE" stroke="#263238" stroke-width="0.75" stroke-miterlimit="10" stroke-linecap="round" stroke-linejoin="round"/>
<path d="M171.759 152.747H167.539V153.826H171.759V152.747Z" fill="#263238" stroke="#263238" stroke-width="0.75" stroke-miterlimit="10" stroke-linecap="round" stroke-linejoin="round"/>
<path d="M167.07 152.387H162.85V153.826H167.07V152.387Z" fill="white" stroke="#263238" stroke-width="0.75" stroke-miterlimit="10" stroke-linecap="round" stroke-linejoin="round"/>
<path d="M162.38 135.83H158.16V153.826H162.38V135.83Z" fill="#A28BFE" stroke="#263238" stroke-width="0.75" stroke-miterlimit="10" stroke-linecap="round" stroke-linejoin="round"/>
<path d="M157.691 150.227H153.471V153.826H157.691V150.227Z" fill="#263238" stroke="#263238" stroke-width="0.75" stroke-miterlimit="10" stroke-linecap="round" stroke-linejoin="round"/>
<path d="M153.001 146.628H148.781V153.826H153.001V146.628Z" fill="white" stroke="#263238" stroke-width="0.75" stroke-miterlimit="10" stroke-linecap="round" stroke-linejoin="round"/>
<path d="M218.926 113.982H149.33V117.544H218.926V113.982Z" fill="#A28BFE" stroke="#263238" stroke-miterlimit="10"/>
<path d="M178.952 114.243H167.666V117.283H178.952V114.243Z" fill="#263238" stroke="#263238" stroke-miterlimit="10"/>
<path d="M200.61 114.243H179.41V117.283H200.61V114.243Z" fill="white" stroke="#263238" stroke-miterlimit="10"/>
<path opacity="0.2" d="M213.034 87.7677H156.565C153.978 87.7677 151.881 85.6705 151.881 83.0834V42.8301C151.881 40.2429 153.978 38.1458 156.565 38.1458H213.035C215.622 38.1458 217.719 40.2429 217.719 42.8301V83.0834C217.719 85.6705 215.621 87.7677 213.034 87.7677Z" fill="black"/>
<path d="M210.616 84.5432H154.147C151.56 84.5432 149.463 82.446 149.463 79.8589V39.6056C149.463 37.0185 151.56 34.9213 154.147 34.9213H210.616C213.204 34.9213 215.301 37.0185 215.301 39.6056V79.8589C215.301 82.446 213.204 84.5432 210.616 84.5432Z" fill="white" stroke="#263238" stroke-miterlimit="10" stroke-linecap="round" stroke-linejoin="round"/>
<path d="M152.518 79.8978H214.332" stroke="#263238" stroke-width="0.5" stroke-miterlimit="10"/>
<path d="M152.518 79.8978V80.8124" stroke="#263238" stroke-width="0.5" stroke-miterlimit="10"/>
<path d="M156.639 79.8978V80.8124" stroke="#263238" stroke-width="0.5" stroke-miterlimit="10"/>
<path d="M160.76 79.8978V80.8124" stroke="#263238" stroke-width="0.5" stroke-miterlimit="10"/>
<path d="M164.881 79.8978V80.8124" stroke="#263238" stroke-width="0.5" stroke-miterlimit="10"/>
<path d="M169.002 79.8978V80.8124" stroke="#263238" stroke-width="0.5" stroke-miterlimit="10"/>
<path d="M173.123 79.8978V80.8124" stroke="#263238" stroke-width="0.5" stroke-miterlimit="10"/>
<path d="M177.244 79.8978V80.8124" stroke="#263238" stroke-width="0.5" stroke-miterlimit="10"/>
<path d="M181.365 79.8978V80.8124" stroke="#263238" stroke-width="0.5" stroke-miterlimit="10"/>
<path d="M185.484 79.8978V80.8124" stroke="#263238" stroke-width="0.5" stroke-miterlimit="10"/>
<path d="M189.605 79.8978V80.8124" stroke="#263238" stroke-width="0.5" stroke-miterlimit="10"/>
<path d="M193.727 79.8978V80.8124" stroke="#263238" stroke-width="0.5" stroke-miterlimit="10"/>
<path d="M197.848 79.8978V80.8124" stroke="#263238" stroke-width="0.5" stroke-miterlimit="10"/>
<path d="M201.969 79.8978V80.8124" stroke="#263238" stroke-width="0.5" stroke-miterlimit="10"/>
<path d="M206.09 79.8978V80.8124" stroke="#263238" stroke-width="0.5" stroke-miterlimit="10"/>
<path d="M210.211 79.8978V80.8124" stroke="#263238" stroke-width="0.5" stroke-miterlimit="10"/>
<path d="M214.332 79.8978V80.8124" stroke="#263238" stroke-width="0.5" stroke-miterlimit="10"/>
<path d="M154.578 79.1553H212.272V71.1803L208.193 63.2869C208.165 63.2332 208.146 63.174 208.136 63.1121L204.508 39.7076C204.419 39.1311 203.704 39.1431 203.629 39.7224L199.938 68.2951C199.919 68.4397 199.849 68.568 199.744 68.6491L196.187 71.4028C195.972 71.5699 195.68 71.4883 195.553 71.2258L191.971 63.8327C191.822 63.5242 191.456 63.4771 191.252 63.7401L187.546 68.5214L183.425 73.8381L179.304 68.5214L175.674 63.8371C175.45 63.5488 175.044 63.6382 174.926 64.0015L171.063 75.9643L166.942 54.6427L162.821 78.0911L158.7 74.9012L155.436 65.6384C155.251 65.1128 154.579 65.2668 154.579 65.8345V79.1553H154.578Z" fill="#A28BFE"/>
<path d="M212.272 79.1684H154.578V72.3102L158.657 65.5221C158.685 65.4761 158.704 65.4251 158.713 65.3719L162.342 45.2445C162.431 44.7485 163.146 44.7589 163.221 45.2571L166.912 69.8288C166.931 69.9532 167.001 70.0639 167.105 70.1335L170.662 72.5014C170.878 72.645 171.17 72.5749 171.297 72.3491L174.879 65.9912C175.028 65.726 175.394 65.6854 175.598 65.9117L179.304 70.0239L183.425 74.5959L187.546 70.0239L191.176 65.9956C191.4 65.7479 191.806 65.8246 191.924 66.137L195.788 76.4246H199.909L204.03 78.2532L208.151 75.51L211.414 67.5442C211.599 67.0921 212.272 67.2247 212.272 67.713V79.1684Z" fill="#263238"/>
<path d="M185.82 41.5394H198.588" stroke="#263238" stroke-miterlimit="10" stroke-linecap="round" stroke-linejoin="round"/>
<path d="M185.82 44.5293H198.588" stroke="#263238" stroke-miterlimit="10" stroke-linecap="round" stroke-linejoin="round"/>
<path d="M185.82 47.5187H198.588" stroke="#263238" stroke-miterlimit="10" stroke-linecap="round" stroke-linejoin="round"/>
<path d="M185.82 50.5085H198.588" stroke="#263238" stroke-miterlimit="10" stroke-linecap="round" stroke-linejoin="round"/>
<path d="M185.82 53.4979H198.588" stroke="#263238" stroke-miterlimit="10" stroke-linecap="round" stroke-linejoin="round"/>
<path d="M185.82 56.4872H198.588" stroke="#263238" stroke-miterlimit="10" stroke-linecap="round" stroke-linejoin="round"/>
<path d="M182.918 41.5394H184.514" stroke="#263238" stroke-miterlimit="10" stroke-linecap="round" stroke-linejoin="round"/>
<path d="M182.918 44.5293H184.514" stroke="#263238" stroke-miterlimit="10" stroke-linecap="round" stroke-linejoin="round"/>
<path d="M182.918 47.5187H184.514" stroke="#263238" stroke-miterlimit="10" stroke-linecap="round" stroke-linejoin="round"/>
<path d="M182.918 50.5085H184.514" stroke="#263238" stroke-miterlimit="10" stroke-linecap="round" stroke-linejoin="round"/>
<path d="M182.918 53.4979H184.514" stroke="#263238" stroke-miterlimit="10" stroke-linecap="round" stroke-linejoin="round"/>
<path d="M182.918 56.4872H184.514" stroke="#263238" stroke-miterlimit="10" stroke-linecap="round" stroke-linejoin="round"/>
<path d="M135.63 245.504C153.619 245.504 168.203 238.266 168.203 229.338C168.203 220.41 153.619 213.172 135.63 213.172C117.64 213.172 103.057 220.41 103.057 229.338C103.057 238.266 117.64 245.504 135.63 245.504Z" fill="#A28BFE"/>
<path opacity="0.5" d="M135.63 245.504C153.619 245.504 168.203 238.266 168.203 229.338C168.203 220.41 153.619 213.172 135.63 213.172C117.64 213.172 103.057 220.41 103.057 229.338C103.057 238.266 117.64 245.504 135.63 245.504Z" fill="white"/>
<path d="M124.684 107.471C124.684 107.471 116.324 137.299 116.324 139.598C116.324 141.552 119.059 145.459 122.087 143.896C125.115 142.333 125.799 137.449 125.799 137.449L124.684 107.471Z" fill="white" stroke="#263238" stroke-miterlimit="10" stroke-linecap="round" stroke-linejoin="round"/>
<path d="M147.055 229.657C147.055 229.657 142.777 235.437 142.454 237.863C142.13 240.289 145.438 240.493 146.894 239.361C148.349 238.229 151.392 230.83 151.392 230.83L147.055 229.657Z" fill="white" stroke="#263238" stroke-miterlimit="10" stroke-linecap="round" stroke-linejoin="round"/>
<path d="M123.699 215.738C123.699 215.738 116.373 218.815 116.373 220.573C116.373 222.331 120.182 221.892 122.966 220.866C125.75 219.841 130.145 218.083 130.145 218.083C130.145 218.083 125.897 215.299 123.699 215.738Z" fill="white" stroke="#263238" stroke-miterlimit="10" stroke-linecap="round" stroke-linejoin="round"/>
<path d="M125.995 146.143L125.75 155.667C125.75 155.667 123.846 173.102 122.967 182.479C122.088 191.856 124.871 213.394 124.871 213.394L123.553 214.713V216.031L130.146 218.083C130.146 218.083 130.732 215.299 130.732 213.98C130.732 212.662 130.732 211.782 130.732 211.782L137.618 170.611C137.618 170.611 143.04 212.222 143.919 217.057C144.798 221.892 146.116 227.021 146.116 227.021L145.677 228.486L146.263 231.123L150.804 232.296C150.804 232.296 151.83 230.977 152.123 228.34C152.416 225.702 152.562 219.549 152.562 219.549C152.562 219.549 152.269 198.157 153.295 183.652C154.321 169.147 153.002 156.839 153.002 156.839L152.269 147.169C152.27 147.168 139.718 152.296 125.995 146.143Z" fill="#263238" stroke="#263238" stroke-miterlimit="10" stroke-linecap="round" stroke-linejoin="round"/>
<path d="M137.618 170.611L136.885 165.19L133.955 162.113" stroke="white" stroke-miterlimit="10" stroke-linecap="round" stroke-linejoin="round"/>
<path d="M147.875 151.417C147.875 151.417 145.824 155.227 151.392 156.985" stroke="white" stroke-miterlimit="10" stroke-linecap="round" stroke-linejoin="round"/>
<path d="M151.391 158.743V226.434" stroke="white" stroke-miterlimit="10" stroke-linecap="round" stroke-linejoin="round"/>
<path d="M132.929 152.296L133.516 155.813C133.516 155.813 132.05 158.45 132.637 159.622" stroke="white" stroke-miterlimit="10" stroke-linecap="round" stroke-linejoin="round"/>
<path d="M135.864 103.67C135.864 103.67 124.879 106.885 124.683 107.471C124.488 108.057 125.994 146.142 125.994 146.142C125.994 146.142 128.924 150.635 136.934 151.319C144.944 152.003 152.562 147.803 152.562 147.803L157.837 113.127C157.837 113.127 145.236 104.531 144.357 104.336C143.479 104.141 138.306 102.986 135.864 103.67Z" fill="white" stroke="#263238" stroke-miterlimit="10" stroke-linecap="round" stroke-linejoin="round"/>
<path d="M135.107 110.994L137.717 117.393L142.179 112.341C142.179 112.341 141.842 109.142 138.896 108.805C135.949 108.468 135.107 110.994 135.107 110.994Z" fill="#263238" stroke="#263238" stroke-miterlimit="10" stroke-linecap="round" stroke-linejoin="round"/>
<path d="M135.865 103.67L131.234 110.994C131.234 110.994 133.928 110.321 135.191 111.415C136.454 112.509 137.885 113.688 137.885 113.688C137.885 113.688 140.074 111.92 141.843 112.509C143.61 113.098 145.21 114.362 145.21 114.362C145.21 114.362 146.304 107.121 144.873 103.838C143.442 100.555 138.896 99.376 135.865 103.67Z" fill="white" stroke="#263238" stroke-miterlimit="10" stroke-linecap="round" stroke-linejoin="round"/>
<path d="M137.045 104.511C137.045 104.511 136.792 108.216 136.96 110.91C137.128 113.604 137.97 114.193 138.981 112.425C139.991 110.657 142.264 105.269 142.264 103.753C142.264 102.238 142.432 100.891 142.432 100.891C142.432 100.891 138.897 104.68 137.045 104.511Z" fill="white" stroke="#263238" stroke-miterlimit="10" stroke-linecap="round" stroke-linejoin="round"/>
<path d="M137.718 117.392L133.34 139.702L136.286 147.111L139.907 141.049L137.718 117.392Z" fill="#263238" stroke="#263238" stroke-miterlimit="10" stroke-linecap="round" stroke-linejoin="round"/>
<path d="M146.313 137.743C146.313 137.743 136.447 131.784 135.568 131.003C134.689 130.221 134.689 130.807 134.005 131.198C133.321 131.589 130.782 134.617 130.294 135.593C129.805 136.57 129.024 137.938 130 138.133C130.977 138.328 131.758 136.472 131.758 136.179C131.758 135.886 133.224 134.225 133.224 134.225C133.224 134.225 131.758 137.742 132.247 138.035C132.735 138.328 136.056 139.696 136.74 139.696C137.423 139.696 137.912 138.426 137.912 138.426C137.912 138.426 138.889 139.696 139.866 139.598C140.843 139.501 141.526 139.012 141.526 139.012L144.847 141.65L146.313 137.743Z" fill="white" stroke="#263238" stroke-miterlimit="10" stroke-linecap="round" stroke-linejoin="round"/>
<path d="M146.312 137.743C146.312 137.743 145.084 137.001 143.458 136.008L142.012 139.398L144.847 141.649L146.312 137.743Z" fill="white" stroke="#263238" stroke-miterlimit="10" stroke-linecap="round" stroke-linejoin="round"/>
<path d="M133.518 138.719C133.518 138.719 133.811 135.593 135.08 133.835" stroke="#263238" stroke-miterlimit="10" stroke-linecap="round" stroke-linejoin="round"/>
<path d="M135.178 139.11C135.178 139.11 135.862 136.375 137.229 134.812" stroke="#263238" stroke-miterlimit="10" stroke-linecap="round" stroke-linejoin="round"/>
<path d="M153.735 114.885C153.735 114.885 150.024 117.914 149.144 122.797L155.298 140.282C155.298 140.282 147.972 137.254 147.093 137.156C146.214 137.059 143.088 141.357 143.967 142.333C144.846 143.31 162.037 152.98 163.112 151.71C164.186 150.44 158.716 115.862 158.13 114.592C157.544 113.323 157.934 112.639 155.883 112.345" fill="white"/>
<path d="M153.735 114.885C153.735 114.885 150.024 117.914 149.144 122.797L155.298 140.282C155.298 140.282 147.972 137.254 147.093 137.156C146.214 137.059 143.088 141.357 143.967 142.333C144.846 143.31 162.037 152.98 163.112 151.71C164.186 150.44 158.716 115.862 158.13 114.592C157.544 113.323 157.934 112.639 155.883 112.345" stroke="#263238" stroke-miterlimit="10" stroke-linecap="round" stroke-linejoin="round"/>
<path d="M155.299 140.282C155.299 140.282 158.815 141.063 159.792 142.92L155.299 140.282Z" fill="white"/>
<path d="M155.299 140.282C155.299 140.282 158.815 141.063 159.792 142.92" stroke="#263238" stroke-miterlimit="10" stroke-linecap="round" stroke-linejoin="round"/>
<path d="M115.974 125.879L123.821 143.426C123.9 143.602 124.044 143.742 124.222 143.815L135.448 148.423C136.054 148.672 136.665 148.081 136.438 147.467L130.157 130.492C129.934 129.887 129.455 129.411 128.848 129.192L116.915 124.867C116.292 124.64 115.703 125.274 115.974 125.879Z" fill="#A28BFE" stroke="#263238" stroke-miterlimit="10" stroke-linecap="round" stroke-linejoin="round"/>
<path d="M118.928 135.227C118.455 135.133 118.021 135.516 118.066 135.996C118.091 136.278 118.165 136.551 118.338 136.675C118.767 136.981 122.016 137.226 121.893 136.613C121.797 136.133 120.121 135.465 118.928 135.227Z" fill="white" stroke="#263238" stroke-miterlimit="10" stroke-linecap="round" stroke-linejoin="round"/>
<path d="M117.903 134.044C117.342 133.932 116.828 134.386 116.881 134.956C116.911 135.29 116.998 135.614 117.203 135.76C117.712 136.123 121.564 136.414 121.419 135.687C121.305 135.118 119.318 134.326 117.903 134.044Z" fill="white" stroke="#263238" stroke-miterlimit="10" stroke-linecap="round" stroke-linejoin="round"/>
<path d="M117.597 132.306C116.987 132.184 116.427 132.678 116.485 133.298C116.518 133.661 116.613 134.013 116.836 134.172C117.389 134.567 121.58 134.884 121.421 134.093C121.298 133.474 119.136 132.612 117.597 132.306Z" fill="white" stroke="#263238" stroke-miterlimit="10" stroke-linecap="round" stroke-linejoin="round"/>
<path d="M116.965 130.645C116.354 130.524 115.795 131.018 115.852 131.637C115.885 132.001 115.98 132.353 116.203 132.512C116.756 132.907 120.947 133.223 120.789 132.433C120.665 131.814 118.503 130.952 116.965 130.645Z" fill="white" stroke="#263238" stroke-miterlimit="10" stroke-linecap="round" stroke-linejoin="round"/>
<path d="M131.701 91.847C131.701 91.847 132.355 98.5512 133.827 101.658C135.298 104.764 135.789 106.236 137.261 106.236C138.732 106.236 141.512 104.111 142.82 102.148C144.128 100.186 144.619 99.205 144.619 99.205L144.946 98.3874C144.946 98.3874 147.235 96.7522 147.726 95.6074C148.216 94.4626 147.235 93.645 145.437 94.6265C145.437 94.6265 146.091 89.5575 144.782 86.4509C143.474 83.3442 133.5 86.2876 131.701 91.847Z" fill="white" stroke="#263238" stroke-miterlimit="10"/>
<path d="M129.916 94.3907L140.965 96.6474C140.965 96.6474 141.043 98.3594 139.876 98.9041C138.709 99.4488 137.23 99.1375 136.374 98.3594C135.518 97.5812 135.518 96.1027 135.518 96.1027C135.518 96.1027 134.818 95.558 134.74 96.1027C134.679 96.534 134.178 97.9407 132.582 97.8903C131.536 97.8574 130.611 97.1455 130.26 96.1602C130.1 95.7092 129.965 95.1273 129.916 94.3907Z" fill="white" stroke="#263238" stroke-miterlimit="10" stroke-linecap="round" stroke-linejoin="round"/>
<path d="M140.967 96.6474L145.557 94.2351" stroke="#263238" stroke-miterlimit="10" stroke-linecap="round" stroke-linejoin="round"/>
<path d="M129.916 94.3908L131.706 93.6904" stroke="#263238" stroke-miterlimit="10" stroke-linecap="round" stroke-linejoin="round"/>
<path d="M134.819 96.5696L134.041 99.4488L134.975 99.6822L135.208 101.939L136.687 101.55" fill="white"/>
<path d="M134.819 96.5696L134.041 99.4488L134.975 99.6822L135.208 101.939L136.687 101.55" stroke="#263238" stroke-miterlimit="10" stroke-linecap="round" stroke-linejoin="round"/>
<path d="M136.444 81.0553C136.444 81.0553 129.903 86.1243 129.249 89.2309C128.595 92.3375 132.846 93.6456 135.626 93.1551C138.406 92.6647 142.494 90.0485 142.494 90.0485C142.494 90.0485 140.205 93.6456 142.003 93.8094C143.802 93.9727 144.456 93.8094 144.456 93.8094C144.456 93.8094 143.475 95.7718 144.293 95.7718C145.11 95.7718 145.438 94.627 145.438 94.627C145.438 94.627 147.727 89.2309 147.073 84.3257C146.419 79.42 140.368 77.9481 136.444 81.0553Z" fill="#263238" stroke="#263238" stroke-miterlimit="10"/>
</svg>
