<svg width="274" height="274" viewBox="0 0 274 274" fill="none" xmlns="http://www.w3.org/2000/svg">
<path d="M90.885 81.0536C86.3739 83.7399 81.683 86.1823 77.1127 88.8571C56.0739 101.168 38.7554 117.679 36.6341 142.968C35.0811 161.486 40.9113 183.028 57.2011 193.746C61.2125 196.386 65.717 198.212 70.42 199.17C77.0645 200.523 84.1002 199.994 90.885 199.603V81.0536Z" fill="#A28BFE"/>
<path d="M188.552 54.7173H123.232C119.057 57.3093 115.112 60.3485 111.455 63.7428H201.223C197.252 60.3792 193.021 57.3384 188.552 54.7173Z" fill="#A28BFE"/>
<path d="M185.497 53.0163C180.774 50.5103 175.807 48.4695 170.613 47.0151C154.993 42.6405 139.521 45.5492 126.131 53.0163H185.497Z" fill="#A28BFE"/>
<path d="M223.785 90.1625C218.196 81.1901 211.255 72.6572 203.174 65.4438H142.639V207.552C147.174 208.987 151.745 210.297 156.482 211.056C187.35 215.996 221.882 205.003 233.855 173.896C244.586 146.017 239.251 114.987 223.785 90.1625Z" fill="#A28BFE"/>
<path d="M138.926 65.4438H109.676C108.466 66.6363 107.288 67.8638 106.149 69.1313C102.716 72.9564 98.7767 76.0208 94.5977 78.7455V199.42C105.163 199.017 115.782 200.068 126.063 202.536C130.422 203.583 134.674 204.975 138.926 206.358V65.4438Z" fill="#A28BFE"/>
<g opacity="0.8">
<path d="M90.885 81.0536C86.3739 83.7399 81.683 86.1823 77.1127 88.8571C56.0739 101.168 38.7554 117.679 36.6341 142.968C35.0811 161.486 40.9113 183.028 57.2011 193.746C61.2125 196.386 65.717 198.212 70.42 199.17C77.0645 200.523 84.1002 199.994 90.885 199.603V81.0536Z" fill="white"/>
<path d="M188.552 54.7173H123.232C119.057 57.3093 115.112 60.3485 111.455 63.7428H201.223C197.252 60.3792 193.021 57.3384 188.552 54.7173Z" fill="white"/>
<path d="M185.497 53.0163C180.774 50.5103 175.807 48.4695 170.613 47.0151C154.993 42.6405 139.521 45.5492 126.131 53.0163H185.497Z" fill="white"/>
<path d="M223.785 90.1625C218.196 81.1901 211.255 72.6572 203.174 65.4438H142.639V207.552C147.174 208.987 151.745 210.297 156.482 211.056C187.35 215.996 221.882 205.003 233.855 173.896C244.586 146.017 239.251 114.987 223.785 90.1625Z" fill="white"/>
<path d="M138.926 65.4438H109.676C108.466 66.6363 107.288 67.8638 106.149 69.1313C102.716 72.9564 98.7767 76.0208 94.5977 78.7455V199.42C105.163 199.017 115.782 200.068 126.063 202.536C130.422 203.583 134.674 204.975 138.926 206.358V65.4438Z" fill="white"/>
</g>
<path d="M117.447 70.292H109.473V72.0313V82.2565V83.9958H126.387V72.0313H118.014L117.447 70.292Z" fill="#A28BFE"/>
<path d="M117.447 96.3718H109.473V98.1106V108.336V110.075H126.387V98.1106H118.014L117.447 96.3718Z" fill="#A28BFE"/>
<path d="M117.447 122.451H109.473V124.19V134.415V136.154H126.387V124.19H118.014L117.447 122.451Z" fill="#A28BFE"/>
<path d="M117.447 148.531H109.473V150.27V160.494V162.234H126.387V150.27H118.014L117.447 148.531Z" fill="#A28BFE"/>
<path d="M117.447 174.61H109.473V176.349V186.574V188.313H126.387V176.349H118.014L117.447 174.61Z" fill="#A28BFE"/>
<path d="M168.567 70.292H160.592V72.0313V82.2565V83.9958H177.507V72.0313H169.133L168.567 70.292Z" fill="#A28BFE"/>
<path d="M201.733 72.0313L201.166 70.292H193.191V72.0313V82.2565V83.9958H210.106V72.0313H201.733Z" fill="#A28BFE"/>
<path d="M168.567 96.3718H160.592V98.1106V108.336V110.075H177.507V98.1106H169.133L168.567 96.3718Z" fill="#A28BFE"/>
<path d="M201.166 122.451H193.191V124.19V134.415V136.154H210.106V124.19H201.733L201.166 122.451Z" fill="#A28BFE"/>
<path d="M201.166 96.3718H193.191V98.1106V108.336V110.075H210.106V98.1106H201.733L201.166 96.3718Z" fill="#A28BFE"/>
<path d="M168.567 122.451H160.592V124.19V134.415V136.154H177.507V124.19H169.133L168.567 122.451Z" fill="#A28BFE"/>
<path d="M168.567 148.531H160.592V150.27V160.494V162.234H177.507V150.27H169.133L168.567 148.531Z" fill="#A28BFE"/>
<path d="M201.166 148.531H193.191V150.27V160.494V162.234H210.106V150.27H201.733L201.166 148.531Z" fill="#A28BFE"/>
<path d="M168.567 174.61H160.592V176.349V186.574V188.313H177.507V176.349H169.133L168.567 174.61Z" fill="#A28BFE"/>
<path d="M201.166 174.61H193.191V176.349V186.574V188.313H210.106V176.349H201.733L201.166 174.61Z" fill="#A28BFE"/>
<g opacity="0.5">
<path d="M117.447 70.292H109.473V72.0313V82.2565V83.9958H126.387V72.0313H118.014L117.447 70.292Z" fill="white"/>
<path d="M117.447 96.3718H109.473V98.1106V108.336V110.075H126.387V98.1106H118.014L117.447 96.3718Z" fill="white"/>
<path d="M117.447 122.451H109.473V124.19V134.415V136.154H126.387V124.19H118.014L117.447 122.451Z" fill="white"/>
<path d="M117.447 148.531H109.473V150.27V160.494V162.234H126.387V150.27H118.014L117.447 148.531Z" fill="white"/>
<path d="M117.447 174.61H109.473V176.349V186.574V188.313H126.387V176.349H118.014L117.447 174.61Z" fill="white"/>
<path d="M168.567 70.292H160.592V72.0313V82.2565V83.9958H177.507V72.0313H169.133L168.567 70.292Z" fill="white"/>
<path d="M201.733 72.0313L201.166 70.292H193.191V72.0313V82.2565V83.9958H210.106V72.0313H201.733Z" fill="white"/>
<path d="M168.567 96.3718H160.592V98.1106V108.336V110.075H177.507V98.1106H169.133L168.567 96.3718Z" fill="white"/>
<path d="M201.166 122.451H193.191V124.19V134.415V136.154H210.106V124.19H201.733L201.166 122.451Z" fill="white"/>
<path d="M201.166 96.3718H193.191V98.1106V108.336V110.075H210.106V98.1106H201.733L201.166 96.3718Z" fill="white"/>
<path d="M168.567 122.451H160.592V124.19V134.415V136.154H177.507V124.19H169.133L168.567 122.451Z" fill="white"/>
<path d="M168.567 148.531H160.592V150.27V160.494V162.234H177.507V150.27H169.133L168.567 148.531Z" fill="white"/>
<path d="M201.166 148.531H193.191V150.27V160.494V162.234H210.106V150.27H201.733L201.166 148.531Z" fill="white"/>
<path d="M168.567 174.61H160.592V176.349V186.574V188.313H177.507V176.349H169.133L168.567 174.61Z" fill="white"/>
<path d="M201.166 174.61H193.191V176.349V186.574V188.313H210.106V176.349H201.733L201.166 174.61Z" fill="white"/>
</g>
<path d="M118.643 236.736C133.927 236.736 146.317 234.16 146.317 230.982C146.317 227.804 133.927 225.228 118.643 225.228C103.359 225.228 90.9688 227.804 90.9688 230.982C90.9688 234.16 103.359 236.736 118.643 236.736Z" fill="#A28BFE"/>
<path opacity="0.5" d="M118.643 236.736C133.927 236.736 146.317 234.16 146.317 230.982C146.317 227.804 133.927 225.228 118.643 225.228C103.359 225.228 90.9688 227.804 90.9688 230.982C90.9688 234.16 103.359 236.736 118.643 236.736Z" fill="white"/>
<path d="M139.15 108.802C139.15 108.802 139.037 105.869 139.037 102.823C139.037 99.7766 140.616 99.0998 141.632 99.0998C142.647 99.0998 143.098 99.2127 143.098 99.2127C143.098 99.2127 143.662 94.3612 147.272 93.5716C150.883 92.7819 153.59 95.7153 154.832 94.6999C156.073 93.6845 151.898 93.7973 153.703 92.3309C155.508 90.8644 160.698 90.7516 161.262 96.1669C161.826 101.582 158.104 104.064 156.298 104.516C154.493 104.967 152.011 101.695 149.641 101.808C147.272 101.921 147.611 104.629 146.144 105.757C144.678 106.885 143.549 106.321 143.549 107.788C143.549 109.254 142.873 110.044 141.067 110.157C139.263 110.269 139.15 108.802 139.15 108.802Z" fill="#263238" stroke="#263238" stroke-miterlimit="10" stroke-linecap="round" stroke-linejoin="round"/>
<path d="M155.867 100.076C155.867 100.076 157.623 100.887 159.92 99.4012C162.216 97.9156 160.73 94.5388 160.325 94.4034" stroke="white" stroke-miterlimit="10" stroke-linecap="round" stroke-linejoin="round"/>
<path d="M145.602 99.2658C145.602 99.2658 146.412 95.7537 149.249 95.8891C152.085 96.0244 151.68 98.5907 154.111 99.4012" stroke="white" stroke-miterlimit="10" stroke-linecap="round" stroke-linejoin="round"/>
<path d="M144.114 101.469C144.114 101.469 142.495 99.8062 141.01 100.211C139.524 100.616 140.199 103.183 140.334 103.993C140.469 104.804 139.389 107.1 139.389 107.1" stroke="white" stroke-miterlimit="10" stroke-linecap="round" stroke-linejoin="round"/>
<path d="M106.018 110.725L110.097 125.276L116.625 125.004L112.817 110.317L106.018 110.725Z" fill="#263238" stroke="#263238" stroke-miterlimit="10" stroke-linecap="round" stroke-linejoin="round"/>
<path d="M116.761 137.924L114.993 138.876C114.993 138.876 112.817 132.076 111.865 129.492C110.913 126.909 110.641 125.821 110.641 125.821L110.686 125.795C111.63 125.243 112.109 124.143 111.869 123.076L111.558 121.692C111.558 121.692 111.994 122.669 112.896 122.075C113.35 121.775 112.866 118.767 112.322 117.679C111.778 116.591 109.96 117.389 109.416 117.662C108.872 117.933 108.329 118.478 108.329 118.478L107.92 116.846C107.92 116.846 109.961 116.71 110.368 116.71C110.777 116.71 112.272 115.35 111.592 115.214C110.912 115.078 107.104 115.078 106.152 115.894C105.201 116.71 106.833 119.974 107.104 120.654C107.376 121.334 108.736 128.269 109.28 130.173C109.825 132.077 111.184 146.084 112 147.308C112.816 148.532 118.936 142.821 118.936 142.821L116.761 137.924Z" fill="white" stroke="#263238" stroke-miterlimit="10" stroke-linecap="round" stroke-linejoin="round"/>
<path d="M108.787 119.494C108.787 119.494 110.699 117.869 112.419 118.251" stroke="#263238" stroke-miterlimit="10" stroke-linecap="round" stroke-linejoin="round"/>
<path d="M109.361 121.118C109.361 121.118 110.699 119.684 112.515 119.78" stroke="#263238" stroke-miterlimit="10" stroke-linecap="round" stroke-linejoin="round"/>
<path d="M131.252 120.422C131.252 120.422 128.728 122.828 127.64 124.868C126.553 126.908 116.217 137.924 116.217 137.924L119.209 148.123L126.553 141.868C126.553 141.868 130.632 133.981 131.72 128.948C132.808 123.917 133.775 120.329 131.252 120.422Z" fill="#A28BFE" stroke="#263238" stroke-miterlimit="10" stroke-linecap="round" stroke-linejoin="round"/>
<path d="M153.817 123.13C153.817 123.13 145.807 122.453 141.294 121.776C136.781 121.099 131.817 119.858 131.253 120.422C130.689 120.986 127.145 138.707 123.694 145.806C119.125 155.205 115.979 160.185 115.979 160.185C115.979 160.185 120.287 158.253 125.929 159.268C131.57 160.283 140.348 166.278 140.348 166.278C140.348 166.278 144.565 157.202 149.078 148.063C153.591 138.925 155.96 125.273 155.96 124.484C155.96 123.694 154.494 123.017 153.817 123.13Z" fill="#A28BFE" stroke="#263238" stroke-miterlimit="10" stroke-linecap="round" stroke-linejoin="round"/>
<path d="M150.388 122.818C147.666 122.558 143.899 122.167 141.295 121.776C140.916 121.719 140.533 121.658 140.15 121.594C139.773 122.659 139.285 124.353 139.151 126.289C138.925 129.561 140.843 133.172 142.31 133.172C143.776 133.172 148.289 127.08 149.304 125.387C150.04 124.16 150.3 123.237 150.388 122.818Z" fill="white" stroke="#263238" stroke-miterlimit="10" stroke-linecap="round" stroke-linejoin="round"/>
<path d="M142.985 115.459C142.985 115.459 141.857 121.213 140.955 123.582C140.052 125.951 141.067 130.125 142.196 130.238C143.324 130.351 147.837 124.484 147.837 124.484L149.416 117.941C149.416 117.941 143.663 116.361 142.985 115.459Z" fill="white" stroke="#263238" stroke-miterlimit="10" stroke-linecap="round" stroke-linejoin="round"/>
<path d="M154.839 123.372C154.839 123.372 156.607 123.508 157.695 125.412C158.783 127.316 169.662 145.403 169.662 145.403L162.318 147.307L152.119 138.195C152.119 138.195 149.671 135.067 152.391 129.491" fill="#A28BFE"/>
<path d="M154.839 123.372C154.839 123.372 156.607 123.508 157.695 125.412C158.783 127.316 169.662 145.403 169.662 145.403L162.318 147.307L152.119 138.195C152.119 138.195 149.671 135.067 152.391 129.491" stroke="#263238" stroke-miterlimit="10" stroke-linecap="round" stroke-linejoin="round"/>
<path d="M133.625 140.508C133.625 140.508 131.041 142.82 130.905 143.363C130.769 143.907 132.265 146.083 132.673 146.219C133.081 146.355 133.217 145.131 133.081 144.587C132.945 144.043 132.673 143.227 132.673 143.227L134.169 141.459C134.169 141.459 134.713 140.779 133.625 140.508Z" fill="white" stroke="#263238" stroke-miterlimit="10" stroke-linecap="round" stroke-linejoin="round"/>
<path d="M166.807 141.051C166.807 141.051 164.495 140.099 161.639 140.235C158.783 140.371 152.799 141.867 148.992 142.003C145.184 142.139 145.32 142.275 143.28 141.731C141.24 141.187 137.025 137.923 136.072 137.923C135.12 137.923 132.264 142.683 132.672 143.227C133.081 143.771 136.481 146.355 137.432 146.491C138.384 146.627 140.424 145.403 140.424 145.403C140.424 145.403 150.624 146.899 155.384 147.443C160.144 147.987 165.991 148.667 168.303 147.171C170.615 145.675 169.935 142.411 166.807 141.051Z" fill="white" stroke="#263238" stroke-miterlimit="10" stroke-linecap="round" stroke-linejoin="round"/>
<path d="M136.072 139.555L133.488 143.635" stroke="#263238" stroke-miterlimit="10" stroke-linecap="round" stroke-linejoin="round"/>
<path d="M137.976 141.051L134.984 145.131" stroke="#263238" stroke-miterlimit="10" stroke-linecap="round" stroke-linejoin="round"/>
<path d="M139.336 142.819L136.752 145.947" stroke="#263238" stroke-miterlimit="10" stroke-linecap="round" stroke-linejoin="round"/>
<path d="M140.425 145.404L140.153 144.451L138.793 145.267" stroke="#263238" stroke-miterlimit="10" stroke-linecap="round" stroke-linejoin="round"/>
<path d="M156.525 108.351C156.525 108.351 157.654 107.561 157.879 109.705C158.105 111.849 157.315 113.315 156.751 113.654C156.187 113.993 155.51 113.428 155.51 113.428L156.525 108.351Z" fill="white" stroke="#263238" stroke-miterlimit="10" stroke-linecap="round" stroke-linejoin="round"/>
<path d="M140.278 108.689C140.278 108.689 138.473 106.32 137.457 108.351C136.442 110.381 137.231 112.976 138.585 113.992C139.94 115.007 141.293 113.54 141.293 113.54C141.293 113.54 144.227 119.519 146.708 119.745C149.19 119.971 153.816 118.166 155.508 114.668C157.2 111.171 156.975 105.53 157.2 103.386C157.426 101.242 155.057 98.5348 150.657 98.5348C146.257 98.5348 144.113 101.468 144.113 101.468C144.113 101.468 145.354 102.145 144.452 103.386C143.549 104.627 142.421 105.417 142.083 106.207C141.744 106.996 142.083 107.786 141.632 108.463C141.18 109.141 140.278 108.689 140.278 108.689Z" fill="white" stroke="#263238" stroke-miterlimit="10" stroke-linecap="round" stroke-linejoin="round"/>
<path d="M150.507 105.088C150.408 105.721 150.091 106.196 149.797 106.151C149.504 106.105 149.345 105.556 149.443 104.923C149.541 104.291 149.858 103.815 150.152 103.861C150.446 103.907 150.605 104.456 150.507 105.088Z" fill="#263238"/>
<path d="M155.018 106.33C154.92 106.963 154.603 107.438 154.309 107.393C154.015 107.347 153.857 106.798 153.955 106.165C154.053 105.533 154.37 105.057 154.664 105.103C154.958 105.148 155.116 105.698 155.018 106.33Z" fill="#263238"/>
<path d="M148.279 102.44C148.279 102.44 149.687 100.785 151.507 101.696" stroke="#263238" stroke-miterlimit="10" stroke-linecap="round" stroke-linejoin="round"/>
<path d="M154.238 103.02C154.238 103.02 156.308 102.275 156.721 105.089" stroke="#263238" stroke-miterlimit="10" stroke-linecap="round" stroke-linejoin="round"/>
<path d="M153.328 105.172C153.328 105.172 152.584 106.579 152.749 106.993C152.915 107.406 154.984 107.903 154.322 108.483C153.66 109.062 152.004 109.724 151.508 109.393" stroke="#263238" stroke-miterlimit="10" stroke-linecap="round" stroke-linejoin="round"/>
<path d="M147.119 109.641C147.119 109.641 147.698 111.628 150.347 112.041" stroke="#263238" stroke-miterlimit="10" stroke-linecap="round" stroke-linejoin="round"/>
<path d="M116.952 159.269C116.952 159.269 113.928 162.292 109.582 166.828C105.235 171.363 94.0853 186.671 95.2191 191.773C96.353 196.876 124.322 204.624 124.322 204.624L127.346 202.545C127.346 202.545 110.527 190.073 109.393 187.238C108.259 184.403 122.811 175.143 122.811 175.143L139.064 164.749C139.062 164.749 131.787 152.465 116.952 159.269Z" fill="#263238" stroke="#263238" stroke-miterlimit="10" stroke-linecap="round" stroke-linejoin="round"/>
<path d="M137.362 151.71C137.362 151.71 140.952 157.757 140.574 164.938C140.196 172.12 137.362 178.545 130.369 178.356C123.377 178.167 123.944 167.584 126.212 162.293C128.479 157.001 128.858 150.009 137.362 151.71Z" fill="#263238" stroke="#263238" stroke-miterlimit="10" stroke-linecap="round" stroke-linejoin="round"/>
<path d="M127.156 155.3C127.156 155.3 123.187 173.631 121.297 177.222C119.407 180.812 116.006 189.506 116.006 189.506L120.164 190.639C120.164 190.639 126.022 182.513 133.014 174.009C140.007 165.505 138.873 154.166 137.361 151.709C135.849 149.253 129.991 149.441 127.156 155.3Z" fill="#263238" stroke="#263238" stroke-miterlimit="10" stroke-linecap="round" stroke-linejoin="round"/>
<path d="M138.401 158.89C138.401 158.89 135.283 171.93 131.031 177.316" stroke="white" stroke-miterlimit="10" stroke-linecap="round" stroke-linejoin="round"/>
<path d="M124.322 204.624C124.322 204.624 124.889 207.648 123.754 209.726C122.621 211.805 119.975 216.151 121.864 216.341C123.754 216.53 126.4 213.695 128.29 211.427C130.18 209.16 130.368 207.08 131.691 205.38C133.014 203.679 127.344 202.545 127.344 202.545L124.888 203.868L124.322 204.624Z" fill="#A28BFE" stroke="#263238" stroke-miterlimit="10" stroke-linecap="round" stroke-linejoin="round"/>
<path d="M131.691 205.38C132.144 204.798 131.777 204.282 131.099 203.855C129.958 206.267 128.289 209.416 126.305 211.994C124.327 214.566 122.505 215.273 121.217 215.364C121.175 215.914 121.343 216.289 121.864 216.341C123.754 216.53 126.4 213.695 128.29 211.428C130.179 209.16 130.368 207.081 131.691 205.38Z" fill="white" stroke="#263238" stroke-miterlimit="10" stroke-linecap="round" stroke-linejoin="round"/>
<path d="M116.006 189.506C116.006 189.506 112.415 189.127 109.391 187.238C106.367 185.348 105.801 185.348 105.801 188.75C105.801 192.151 109.958 193.852 112.226 195.553C114.494 197.254 115.817 198.199 117.518 198.01C119.219 197.821 120.163 190.64 120.163 190.64C120.163 190.64 119.218 188.75 116.006 189.506Z" fill="#A28BFE" stroke="#263238" stroke-miterlimit="10" stroke-linecap="round" stroke-linejoin="round"/>
<path d="M105.801 188.749C105.801 192.151 109.958 193.852 112.226 195.553C114.473 197.238 115.794 198.178 117.472 198.011C113.508 195.486 113.072 191.445 109.391 187.238C106.367 185.348 105.801 185.348 105.801 188.749Z" fill="white" stroke="#263238" stroke-miterlimit="10" stroke-linecap="round" stroke-linejoin="round"/>
<path d="M114.967 193.663C114.35 192.275 112.779 189.977 111.616 188.354C110.88 188.059 110.12 187.693 109.391 187.238C106.367 185.348 105.801 185.348 105.801 188.75C105.801 192.152 109.958 193.852 112.226 195.553C114.494 197.254 115.817 198.199 117.518 198.01C117.932 197.964 118.302 197.5 118.624 196.828C117.304 196.434 115.829 195.603 114.967 193.663Z" stroke="#263238" stroke-miterlimit="10" stroke-linecap="round" stroke-linejoin="round"/>
<path d="M58.584 129.685C58.6092 129.412 58.6355 129.139 58.664 128.867" stroke="#263238" stroke-miterlimit="10"/>
<path d="M58.8477 127.242C63.7227 87.6696 97.457 57.0315 138.348 57.0315C179.068 57.0315 212.693 87.4159 217.786 126.75" stroke="#263238" stroke-miterlimit="10" stroke-dasharray="2.98 2.98"/>
<path d="M217.887 127.561C217.919 127.833 217.95 128.105 217.98 128.378" stroke="#263238" stroke-miterlimit="10"/>
<path d="M69.4227 74.1329L62.3359 96.2436L90.3996 100.496L95.2187 80.0859C95.2187 80.0859 78.2104 78.9515 69.4227 74.1329Z" fill="white" stroke="#263238" stroke-miterlimit="10" stroke-linecap="round" stroke-linejoin="round"/>
<path d="M98.6211 59.9589C98.6211 59.9589 111.944 61.376 121.582 54.8564C121.582 54.8564 133.488 64.2108 138.024 65.0613C138.024 65.0613 130.937 72.7152 123.567 74.9828C123.567 74.9828 105.425 66.7623 98.6211 59.9589Z" fill="white" stroke="#263238" stroke-miterlimit="10" stroke-linecap="round" stroke-linejoin="round"/>
<path d="M98.6211 59.9589C98.6211 59.9589 100.98 57.9456 105.232 56.8118C105.232 56.8118 105.232 62.5954 109.789 67.7679C109.789 67.7679 101.54 63.3264 98.6211 59.9589Z" fill="#263238" stroke="#263238" stroke-miterlimit="10" stroke-linecap="round" stroke-linejoin="round"/>
<path d="M151.218 69.2662C151.218 69.2662 150.75 70.6871 153.581 73.0457C154.871 74.1203 157.773 74.5505 157.773 74.5505L165.392 65.0137C165.392 65.0137 152.919 66.7147 151.218 69.2662Z" fill="#263238" stroke="#263238" stroke-miterlimit="10" stroke-linecap="round" stroke-linejoin="round"/>
<path d="M151.219 69.2662C151.219 69.2662 157.172 66.9985 164.258 67.2819C171.345 67.5652 175.314 72.6676 175.314 72.6676L183.534 62.4627C183.534 62.4627 176.448 55.9432 168.51 56.2265C160.573 56.5098 151.785 66.9985 151.219 69.2662Z" fill="white" stroke="#263238" stroke-miterlimit="10" stroke-linecap="round" stroke-linejoin="round"/>
<path d="M199.008 74.722C199.008 74.722 193.906 88.1398 182.756 90.0293C182.756 90.0293 193.905 103.258 200.142 104.77C200.142 104.77 212.804 99.1004 216.206 93.0532C216.206 93.0532 205.056 86.6279 199.008 74.722Z" fill="white" stroke="#263238" stroke-miterlimit="10" stroke-linecap="round" stroke-linejoin="round"/>
<path d="M77.3624 143.076L82.3153 122.086H49.0615L48.3535 143.076H77.3624Z" fill="#263238" stroke="#263238" stroke-miterlimit="10" stroke-linecap="round" stroke-linejoin="round"/>
<path d="M52.7938 114.307L52.6875 138.419L77.5689 140.947L79.442 115.309L52.7938 114.307Z" fill="white" stroke="#263238" stroke-miterlimit="10" stroke-linecap="round" stroke-linejoin="round"/>
<path d="M44.5801 118.312L48.3536 143.076H77.3625L75.4758 120.671H59.9098L58.4949 117.841L44.5801 118.312Z" fill="#A28BFE" stroke="#263238" stroke-miterlimit="10" stroke-linecap="round" stroke-linejoin="round"/>
<path d="M202.271 143.076L197.318 122.086H230.572L231.28 143.076H202.271Z" fill="#263238" stroke="#263238" stroke-miterlimit="10" stroke-linecap="round" stroke-linejoin="round"/>
<path d="M226.84 114.307L226.946 138.419L202.065 140.947L200.191 115.309L226.84 114.307Z" fill="white" stroke="#263238" stroke-miterlimit="10" stroke-linecap="round" stroke-linejoin="round"/>
<path d="M235.053 118.312L231.28 143.076H202.271L204.158 120.671H219.724L221.139 117.841L235.053 118.312Z" fill="#A28BFE" stroke="#263238" stroke-miterlimit="10" stroke-linecap="round" stroke-linejoin="round"/>
</svg>
