<svg xmlns="http://www.w3.org/2000/svg" width="56" height="56" viewBox="0 0 56 56" fill="none">
  <path d="M33.0018 32.1037V16.0492C31.2822 13.4897 30.0316 10.5667 29.1684 7.21761C28.8568 6.00862 27.1402 6.02417 26.8282 7.23315C25.9148 10.7707 24.5686 13.8328 22.6934 16.4929L33.0018 32.1037Z" fill="url(#paint0_linear_373_10912)"/>
  <path d="M37.4238 20.9905V34.9773C40.1544 32.6489 43.5508 30.724 47.7292 29.1154C48.7702 28.7146 48.7702 27.2533 47.7292 26.8524C43.5506 25.2438 40.1544 23.3189 37.4238 20.9905Z" fill="url(#paint1_linear_373_10912)"/>
  <path d="M22.6934 16.4928C25.3258 20.4793 33.0018 20.4057 33.0018 16.0491V32.1036L22.6934 16.4928Z" fill="url(#paint2_linear_373_10912)"/>
  <path opacity="0.32" d="M25.9023 21.3509L33.0027 32.1037V20.1589C31.8903 22.114 28.5714 22.4949 25.9023 21.3509Z" fill="url(#paint3_linear_373_10912)"/>
  <path d="M22.998 23.8964V39.9509C24.7176 42.5104 25.9682 45.4334 26.8314 48.7825C27.1431 49.9915 28.8596 49.9759 29.1716 48.7669C30.085 45.2293 31.4313 42.1673 33.3065 39.5072L22.998 23.8964Z" fill="url(#paint4_linear_373_10912)"/>
  <path d="M33.3065 39.5072C30.6741 35.5207 22.998 35.5944 22.998 39.9512V23.8966L33.3065 39.5072Z" fill="url(#paint5_linear_373_10912)"/>
  <path d="M33.3065 39.5072C30.6741 35.5207 22.998 35.5944 22.998 39.9512V23.8966L33.3065 39.5072Z" fill="url(#paint6_linear_373_10912)"/>
  <path opacity="0.32" d="M29.7414 34.1083L22.998 23.8964V34.6977C24.3984 33.2374 27.3445 33.0519 29.7414 34.1083Z" fill="url(#paint7_linear_373_10912)"/>
  <path d="M38.2103 34.3349C38.3522 34.2228 38.4956 34.1117 38.641 34.0016C38.7145 33.946 38.7883 33.8906 38.8625 33.8356C39.0088 33.7269 39.1573 33.6193 39.3071 33.5126C39.3757 33.4637 39.4438 33.4145 39.5131 33.3659C39.7192 33.2217 39.9281 33.0789 40.1406 32.9382C40.1529 32.93 40.1647 32.9218 40.1771 32.9136C40.4021 32.7651 40.6313 32.6189 40.8635 32.4741C40.935 32.4296 41.0079 32.3857 41.0801 32.3415C41.2447 32.2407 41.4107 32.1405 41.5787 32.0415C41.6632 31.9916 41.7485 31.9421 41.8341 31.8928C42.0012 31.7963 42.1702 31.7008 42.3409 31.6061C42.4208 31.5618 42.5001 31.5171 42.5807 31.4732C42.8059 31.3504 43.0339 31.229 43.2652 31.1093C43.2906 31.0961 43.3152 31.0827 43.3406 31.0695C43.5972 30.9372 43.8583 30.8071 44.1227 30.6783C44.2027 30.6393 44.2844 30.6009 44.3652 30.5623C44.5541 30.4717 44.7444 30.382 44.937 30.2931C45.0327 30.2492 45.129 30.2054 45.2255 30.1616C45.4149 30.076 45.6063 29.9913 45.7993 29.9073C45.891 29.8674 45.9822 29.8272 46.0745 29.7877C46.3203 29.6827 46.569 29.579 46.8207 29.4764C46.8591 29.4607 46.8964 29.4446 46.935 29.4291C47.1967 29.3233 47.4612 29.2187 47.7292 29.1154C48.0548 28.9901 48.2786 28.761 48.4005 28.493C44.4778 29.0248 37.4238 28.884 37.4238 20.9905V34.9773C37.6184 34.8115 37.8172 34.6482 38.0186 34.4864C38.0817 34.4355 38.1464 34.3855 38.2103 34.3349Z" fill="url(#paint8_linear_373_10912)"/>
  <path opacity="0.32" d="M44.3652 30.5621C44.5255 30.4853 44.6877 30.4092 44.8507 30.3336C42.1104 30.3384 38.9861 29.662 37.4238 26.9529V34.9776C37.6184 34.8117 37.8172 34.6484 38.0186 34.4866C38.082 34.4357 38.1465 34.3857 38.2107 34.3351C38.3526 34.223 38.4959 34.1119 38.6414 34.0018C38.7148 33.9462 38.7886 33.8908 38.8628 33.8358C39.0092 33.7271 39.1577 33.6195 39.3075 33.5128C39.3761 33.4639 39.4442 33.4147 39.5135 33.3661C39.7196 33.2219 39.9285 33.0791 40.141 32.9385C40.1533 32.9302 40.1651 32.922 40.1774 32.9138C40.4024 32.7653 40.6317 32.6191 40.8638 32.4744C40.9353 32.4299 41.0082 32.3859 41.0804 32.3418C41.245 32.241 41.4111 32.1407 41.5791 32.0417C41.6636 31.9918 41.7488 31.9423 41.8344 31.893C42.0015 31.7965 42.1706 31.7011 42.3413 31.6064C42.4211 31.562 42.5005 31.5174 42.5811 31.4734C42.8063 31.3506 43.0343 31.2293 43.2656 31.1095C43.2909 31.0963 43.3156 31.0829 43.341 31.0697C43.5976 30.9374 43.8587 30.8073 44.123 30.6785C44.2027 30.6392 44.2844 30.6007 44.3652 30.5621Z" fill="url(#paint9_linear_373_10912)"/>
  <path d="M18.5783 34.9773V20.9905C15.8478 23.3189 12.4514 25.2438 8.27293 26.8524C7.23194 27.2533 7.23194 28.7146 8.27293 29.1154C12.4514 30.7242 15.8478 32.6489 18.5783 34.9773Z" fill="url(#paint10_linear_373_10912)"/>
  <path d="M17.9836 21.4814C17.9202 21.5323 17.8557 21.5824 17.7915 21.633C17.6494 21.745 17.5061 21.8563 17.3606 21.9664C17.2874 22.0218 17.2137 22.0771 17.1396 22.1321C16.9929 22.2409 16.8442 22.3487 16.6942 22.4556C16.6258 22.5044 16.5579 22.5535 16.4887 22.6019C16.2825 22.7462 16.0737 22.8889 15.8613 23.0298C15.8489 23.038 15.8371 23.0462 15.8248 23.0544C15.5998 23.2029 15.3705 23.3491 15.1384 23.4939C15.0671 23.5384 14.9945 23.582 14.9225 23.6261C14.7574 23.7273 14.5908 23.8277 14.4221 23.9273C14.3381 23.9768 14.2536 24.0259 14.1687 24.0749C14.0012 24.1716 13.8316 24.2672 13.6606 24.3622C13.5809 24.4066 13.5017 24.4511 13.4211 24.495C13.1947 24.6185 12.9656 24.7404 12.7331 24.8608C12.7091 24.8734 12.6859 24.886 12.6618 24.8984C12.4046 25.031 12.143 25.1613 11.8781 25.2903C11.7993 25.3287 11.7187 25.3664 11.6392 25.4047C11.4492 25.4958 11.2576 25.5862 11.0639 25.6756C10.9688 25.7194 10.8732 25.763 10.7773 25.8062C10.5873 25.8922 10.3952 25.9771 10.2015 26.0614C10.1105 26.1011 10.0201 26.1408 9.92821 26.1801C9.68212 26.2854 9.433 26.3892 9.18084 26.4919C9.14259 26.5075 9.10524 26.5236 9.067 26.5391C8.80536 26.6449 8.54069 26.7495 8.2728 26.8528C7.94719 26.978 7.72344 27.2071 7.60156 27.475C11.5243 26.9434 18.5782 27.084 18.5782 34.9777V20.9908C18.3839 21.1563 18.185 21.3197 17.9836 21.4814Z" fill="url(#paint11_linear_373_10912)"/>
  <path opacity="0.32" d="M17.9836 21.4814C17.9202 21.5323 17.8557 21.5824 17.7915 21.633C17.6494 21.745 17.5061 21.8563 17.3606 21.9664C17.2874 22.0218 17.2137 22.0771 17.1396 22.1321C16.9929 22.2409 16.8442 22.3487 16.6942 22.4556C16.6258 22.5044 16.5579 22.5535 16.4887 22.6019C16.2825 22.7462 16.0737 22.8889 15.8613 23.0298C15.8489 23.038 15.8371 23.0462 15.8248 23.0544C15.5998 23.2029 15.3705 23.3491 15.1384 23.4939C15.0671 23.5384 14.9945 23.582 14.9225 23.6261C14.7574 23.7273 14.5908 23.8277 14.4221 23.9273C14.3381 23.9768 14.2536 24.0259 14.1687 24.0749C14.0012 24.1716 13.8316 24.2672 13.6606 24.3622C13.5809 24.4066 13.5017 24.4511 13.4211 24.495C13.1947 24.6185 12.9656 24.7404 12.7331 24.8608C12.7091 24.8734 12.6859 24.886 12.6618 24.8984C12.4046 25.031 12.143 25.1613 11.8781 25.2903C11.7993 25.3287 11.7187 25.3664 11.6392 25.4047C11.4492 25.4958 11.2576 25.5862 11.0639 25.6756C10.9688 25.7194 10.8732 25.763 10.7773 25.8062C10.5873 25.8922 10.3952 25.9771 10.2015 26.0614C10.1105 26.1011 10.0201 26.1408 9.92821 26.1801C9.68212 26.2854 9.433 26.3892 9.18084 26.4919C9.14259 26.5075 9.10524 26.5236 9.067 26.5391C8.80536 26.6449 8.54069 26.7495 8.2728 26.8528C7.94719 26.978 7.72344 27.2071 7.60156 27.475C11.5243 26.9434 18.5782 27.084 18.5782 34.9777V20.9908C18.3839 21.1563 18.185 21.3197 17.9836 21.4814Z" fill="url(#paint12_linear_373_10912)"/>
  <path d="M18.5781 29.0563V20.9905C18.3834 21.1563 18.1847 21.3197 17.9833 21.4814C17.9199 21.5323 17.8553 21.5824 17.7912 21.6329C17.6491 21.745 17.5058 21.8563 17.3603 21.9664C17.287 22.0218 17.2134 22.077 17.1392 22.1321C16.9925 22.2409 16.8438 22.3487 16.6939 22.4556C16.6254 22.5043 16.5575 22.5535 16.4884 22.6019C16.2821 22.7461 16.0734 22.8889 15.8609 23.0298C15.8486 23.038 15.8368 23.0462 15.8245 23.0544C15.5995 23.2029 15.3702 23.3491 15.138 23.4939C15.0667 23.5384 14.9942 23.582 14.9221 23.6261C14.757 23.7273 14.5905 23.8277 14.4218 23.9272C14.3378 23.9767 14.2532 24.0259 14.1683 24.0749C14.0009 24.1715 13.8313 24.2672 13.6603 24.3622C13.5806 24.4066 13.5014 24.4511 13.4208 24.495C13.1944 24.6185 12.9653 24.7404 12.7327 24.8608C12.7088 24.8733 12.6856 24.886 12.6614 24.8984C12.5149 24.974 12.3641 25.0476 12.2148 25.1218C14.7683 25.3537 17.3746 26.3272 18.5781 29.0563Z" fill="url(#paint13_linear_373_10912)"/>
  <path opacity="0.22" d="M28 0C12.5359 0 0 12.5359 0 28C0 43.4639 12.5359 56 28 56C43.4639 56 56 43.4639 56 28C56 12.5359 43.4639 0 28 0Z" fill="url(#paint14_radial_373_10912)"/>
  <defs>
    <linearGradient id="paint0_linear_373_10912" x1="27.8476" y1="20.3636" x2="27.8476" y2="6.15851" gradientUnits="userSpaceOnUse">
      <stop offset="0.000294" stop-color="#2A0056"/>
      <stop offset="1" stop-color="#8A0BFF"/>
    </linearGradient>
    <linearGradient id="paint1_linear_373_10912" x1="40.8178" y1="30.0198" x2="44.7771" y2="20.0454" gradientUnits="userSpaceOnUse">
      <stop offset="0.000294" stop-color="#2A0056"/>
      <stop offset="1" stop-color="#8A0BFF"/>
    </linearGradient>
    <linearGradient id="paint2_linear_373_10912" x1="22.6934" y1="24.0763" x2="33.0018" y2="24.0763" gradientUnits="userSpaceOnUse">
      <stop stop-color="#DF38FF"/>
      <stop offset="1" stop-color="#FF39FF"/>
    </linearGradient>
    <linearGradient id="paint3_linear_373_10912" x1="25.9023" y1="26.1313" x2="33.0028" y2="26.1313" gradientUnits="userSpaceOnUse">
      <stop stop-color="#8A0BFF"/>
      <stop offset="0.9994" stop-color="#2A0056" stop-opacity="0"/>
    </linearGradient>
    <linearGradient id="paint4_linear_373_10912" x1="28.1522" y1="36.1062" x2="28.1522" y2="50.3112" gradientUnits="userSpaceOnUse">
      <stop offset="0.000294" stop-color="#2A0056"/>
      <stop offset="1" stop-color="#8A0BFF"/>
    </linearGradient>
    <linearGradient id="paint5_linear_373_10912" x1="33.3065" y1="31.9237" x2="22.9982" y2="31.9237" gradientUnits="userSpaceOnUse">
      <stop stop-color="#DF38FF"/>
      <stop offset="1" stop-color="#FF39FF"/>
    </linearGradient>
    <linearGradient id="paint6_linear_373_10912" x1="33.3065" y1="31.9237" x2="22.9982" y2="31.9237" gradientUnits="userSpaceOnUse">
      <stop stop-color="#DF38FF"/>
      <stop offset="1" stop-color="#FF39FF"/>
    </linearGradient>
    <linearGradient id="paint7_linear_373_10912" x1="22.998" y1="29.297" x2="29.7413" y2="29.297" gradientUnits="userSpaceOnUse">
      <stop stop-color="#8A0BFF"/>
      <stop offset="0.9994" stop-color="#2A0056" stop-opacity="0"/>
    </linearGradient>
    <linearGradient id="paint8_linear_373_10912" x1="37.4236" y1="27.9839" x2="48.4002" y2="27.9839" gradientUnits="userSpaceOnUse">
      <stop stop-color="#DF38FF"/>
      <stop offset="1" stop-color="#FF39FF"/>
    </linearGradient>
    <linearGradient id="paint9_linear_373_10912" x1="37.4238" y1="30.9651" x2="44.8507" y2="30.9651" gradientUnits="userSpaceOnUse">
      <stop stop-color="#8A0BFF"/>
      <stop offset="0.9994" stop-color="#2A0056" stop-opacity="0"/>
    </linearGradient>
    <linearGradient id="paint10_linear_373_10912" x1="11.0265" y1="34.7439" x2="15.7304" y2="26.7109" gradientUnits="userSpaceOnUse">
      <stop stop-color="#8A0BFF"/>
      <stop offset="0.9997" stop-color="#2A0056"/>
    </linearGradient>
    <linearGradient id="paint11_linear_373_10912" x1="7.60179" y1="27.9839" x2="18.5784" y2="27.9839" gradientUnits="userSpaceOnUse">
      <stop stop-color="#DF38FF"/>
      <stop offset="1" stop-color="#FF39FF"/>
    </linearGradient>
    <linearGradient id="paint12_linear_373_10912" x1="7.60179" y1="27.9839" x2="18.5784" y2="27.9839" gradientUnits="userSpaceOnUse">
      <stop stop-color="#8A0BFF"/>
      <stop offset="0.9994" stop-color="#2A0056" stop-opacity="0"/>
    </linearGradient>
    <linearGradient id="paint13_linear_373_10912" x1="12.2151" y1="25.0234" x2="18.5781" y2="25.0234" gradientUnits="userSpaceOnUse">
      <stop stop-color="#DF38FF"/>
      <stop offset="1" stop-color="#FF39FF"/>
    </linearGradient>
    <radialGradient id="paint14_radial_373_10912" cx="0" cy="0" r="1" gradientUnits="userSpaceOnUse" gradientTransform="translate(28 27.9999) scale(27.906)">
      <stop stop-color="#C200CE"/>
      <stop offset="0.9988" stop-color="#20242B" stop-opacity="0"/>
    </radialGradient>
  </defs>
</svg>