<svg width="22" height="21" viewBox="0 0 22 21" fill="none" xmlns="http://www.w3.org/2000/svg">
<path d="M9.10084 2.90364C9.84919 1.81293 10.2234 1.26757 10.75 1.26757C11.2766 1.26757 11.6508 1.81293 12.3992 2.90364L14.056 5.31847C14.2551 5.60868 14.3547 5.75379 14.4942 5.8551C14.6338 5.9564 14.8026 6.00611 15.1402 6.10553L17.9481 6.93231C19.2192 7.30661 19.8548 7.49376 20.0177 7.99521C20.1805 8.49666 19.7762 9.02155 18.9676 10.0713L17.1844 12.3864C16.9694 12.6655 16.8618 12.8051 16.8084 12.9693C16.755 13.1335 16.7599 13.3096 16.7696 13.6619L16.85 16.5839C16.8865 17.907 16.9047 18.5686 16.4785 18.8784C16.0523 19.1881 15.4287 18.9666 14.1814 18.5235L11.4194 17.5425C11.088 17.4248 10.9223 17.3659 10.75 17.3659C10.5777 17.3659 10.412 17.4248 10.0806 17.5425L7.31863 18.5235C6.07132 18.9666 5.44767 19.1881 5.02149 18.8784C4.59531 18.5686 4.61352 17.907 4.64995 16.5839L4.73041 13.6619C4.74011 13.3096 4.74496 13.1335 4.69156 12.9693C4.63817 12.8051 4.53065 12.6655 4.31561 12.3864L2.53241 10.0713C1.72378 9.02155 1.31947 8.49666 1.48233 7.99521C1.6452 7.49376 2.28077 7.30661 3.55192 6.93232L6.35979 6.10553C6.69741 6.00611 6.86622 5.9564 7.00578 5.8551C7.14534 5.75379 7.2449 5.60868 7.44402 5.31847L9.10084 2.90364Z" stroke="#A28BFE" stroke-width="2" stroke-linecap="round"/>
</svg>
