<svg width="22" height="21" viewBox="0 0 22 21" fill="none" xmlns="http://www.w3.org/2000/svg">
<path d="M9.60084 2.90364C10.3492 1.81293 10.7234 1.26757 11.25 1.26757C11.7766 1.26757 12.1508 1.81293 12.8992 2.90364L14.556 5.31847C14.7551 5.60868 14.8547 5.75379 14.9942 5.8551C15.1338 5.95641 15.3026 6.00611 15.6402 6.10553L18.4481 6.93231C19.7192 7.30661 20.3548 7.49376 20.5177 7.99521C20.6805 8.49666 20.2762 9.02155 19.4676 10.0713L17.6844 12.3864C17.4694 12.6655 17.3618 12.8051 17.3084 12.9693C17.255 13.1335 17.2599 13.3096 17.2696 13.6619L17.35 16.5839C17.3865 17.907 17.4047 18.5686 16.9785 18.8784C16.5523 19.1881 15.9287 18.9666 14.6814 18.5236L11.9194 17.5425C11.588 17.4248 11.4223 17.3659 11.25 17.3659C11.0777 17.3659 10.912 17.4248 10.5806 17.5425L7.81863 18.5236C6.57132 18.9666 5.94767 19.1881 5.52149 18.8784C5.0953 18.5686 5.11352 17.907 5.14995 16.5839L5.23041 13.6619C5.24011 13.3096 5.24496 13.1335 5.19156 12.9693C5.13817 12.8051 5.03065 12.6655 4.81561 12.3864L3.03241 10.0713C2.22378 9.02155 1.81947 8.49666 1.98233 7.99521C2.1452 7.49376 2.78077 7.30661 4.05192 6.93232L6.85979 6.10553C7.19741 6.00611 7.36622 5.95641 7.50578 5.8551C7.64534 5.75379 7.7449 5.60868 7.94402 5.31847L9.60084 2.90364Z" fill="#A28BFE" stroke="#A28BFE" stroke-width="2" stroke-linecap="round"/>
</svg>
