<svg width="196" height="161" viewBox="0 0 196 161" fill="none" xmlns="http://www.w3.org/2000/svg">
<path d="M194.146 99.9677C196.402 85.1722 194.786 69.9394 190.847 55.5681C187.317 42.6885 182.871 29.4559 172.513 20.4123C159.964 9.45667 144.295 8.01817 128.391 9.87699C96.9349 13.5535 87.9477 0.0727258 64.6626 0.889794C41.3776 1.70686 20.9514 11.5111 14.4154 31.5285C7.87942 51.5458 18.0919 72.3797 13.1901 84.2269C8.28768 96.0736 -5.60138 107.921 2.56875 125.078C10.7389 142.236 28.7138 155.717 70.3821 158.985C112.05 162.253 148.409 163.887 172.103 142.235C184.942 130.502 191.744 115.718 194.146 99.9677Z" fill="#A28BFE"/>
<path opacity="0.7" d="M194.146 99.9677C196.402 85.1722 194.786 69.9394 190.847 55.5681C187.317 42.6885 182.871 29.4559 172.513 20.4123C159.964 9.45667 144.295 8.01817 128.391 9.87699C96.9349 13.5535 87.9477 0.0727258 64.6626 0.889794C41.3776 1.70686 20.9514 11.5111 14.4154 31.5285C7.87942 51.5458 18.0919 72.3797 13.1901 84.2269C8.28768 96.0736 -5.60138 107.921 2.56875 125.078C10.7389 142.236 28.7138 155.717 70.3821 158.985C112.05 162.253 148.409 163.887 172.103 142.235C184.942 130.502 191.744 115.718 194.146 99.9677Z" fill="white"/>
</svg>
