<svg
      xmlns="http://www.w3.org/2000/svg"
      width="24"
      height="24"
      viewBox="0 0 24 24"
      fill="none"
    >
      <g clip-path="url(#clip0_564_4997)">
        <path
          d="M9.9 4.24003C10.5883 4.0789 11.2931 3.99836 12 4.00003C16.8767 4.00003 20.2973 7.88277 21.9238 10.2383C22.4483 10.998 22.7106 11.3779 22.7111 12.0004C22.7116 12.6229 22.4494 13.004 21.925 13.7661C21.5867 14.2576 21.2247 14.7329 20.84 15.19M14.12 14.12C13.8454 14.4148 13.5141 14.6512 13.1462 14.8151C12.7782 14.9791 12.3809 15.0673 11.9781 15.0744C11.5753 15.0815 11.1752 15.0074 10.8016 14.8565C10.4281 14.7056 10.0887 14.4811 9.80385 14.1962C9.51897 13.9113 9.29439 13.572 9.14351 13.1984C8.99262 12.8249 8.91853 12.4247 8.92563 12.0219C8.93274 11.6191 9.02091 11.2219 9.18488 10.8539C9.34884 10.4859 9.58525 10.1547 9.88 9.88003M1 1L23 23M17.94 17.94C16.2306 19.243 14.1491 19.9649 12 20C7.12568 20 3.706 16.121 2.07858 13.7651C1.55279 13.004 1.2899 12.6234 1.29 11.9996C1.29009 11.3758 1.55354 10.9947 2.08043 10.2325C3.17766 8.64522 4.51961 7.23629 6.06 6.06003L17.94 17.94Z"
          stroke="#A28BFE"
          stroke-width="2"
          stroke-linecap="round"
          stroke-linejoin="round"
        />
      </g>
      <defs>
        <clipPath id="clip0_564_4997">
          <rect width="24" height="24" fill="white" />
        </clipPath>
      </defs>
    </svg>