<svg xmlns="http://www.w3.org/2000/svg" width="65" height="69" viewBox="0 0 65 69" fill="none">
  <path d="M40.0867 40.5195V15.2909C37.3845 11.2688 35.4192 6.67552 34.0628 1.41272C33.5731 -0.487115 30.8756 -0.462683 30.3853 1.43715C28.95 6.99623 26.8345 11.808 23.8877 15.9882L40.0867 40.5195Z" fill="white"/>
  <path d="M47.0352 23.0557V45.035C51.326 41.3761 56.6632 38.3512 63.2294 35.8234C64.8652 35.1935 64.8652 32.8972 63.2294 32.2673C56.6629 29.7395 51.326 26.7146 47.0352 23.0557Z" fill="white"/>
  <path d="M23.8877 15.9878C28.0244 22.2524 40.0867 22.1367 40.0867 15.2905V40.5191L23.8877 15.9878Z" fill="white"/>
  <path opacity="0.32" d="M28.9307 23.6222L40.0884 40.5193V21.749C38.3402 24.8213 33.1249 25.4198 28.9307 23.6222Z" fill="white"/>
  <path d="M24.3672 27.6216V52.8502C27.0694 56.8723 29.0346 61.4656 30.391 66.7284C30.8808 68.6282 33.5782 68.6038 34.0686 66.7039C35.5039 61.1448 37.6194 56.3331 40.5662 52.1529L24.3672 27.6216Z" fill="white"/>
  <path d="M40.5662 52.1531C36.4295 45.8885 24.3672 46.0042 24.3672 52.8507V27.6221L40.5662 52.1531Z" fill="white"/>
  <path d="M40.5662 52.1531C36.4295 45.8885 24.3672 46.0042 24.3672 52.8507V27.6221L40.5662 52.1531Z" fill="white"/>
  <path opacity="0.32" d="M34.9638 43.6689L24.3672 27.6216V44.5951C26.5678 42.3004 31.1973 42.0089 34.9638 43.6689Z" fill="white"/>
  <path d="M48.2711 44.0254C48.4941 43.8493 48.7193 43.6747 48.9479 43.5017C49.0633 43.4143 49.1793 43.3273 49.2959 43.2408C49.5259 43.07 49.7592 42.901 49.9946 42.7333C50.1024 42.6564 50.2094 42.5791 50.3184 42.5028C50.6422 42.2761 50.9705 42.0517 51.3044 41.8307C51.3237 41.8178 51.3423 41.8049 51.3617 41.792C51.7152 41.5586 52.0755 41.3289 52.4403 41.1014C52.5527 41.0315 52.6672 40.9624 52.7807 40.893C53.0394 40.7346 53.3002 40.5771 53.5642 40.4215C53.6971 40.3432 53.831 40.2654 53.9655 40.1879C54.2281 40.0362 54.4938 39.8862 54.762 39.7374C54.8875 39.6678 55.0122 39.5975 55.1389 39.5285C55.4927 39.3355 55.8511 39.1448 56.2144 38.9567C56.2543 38.9359 56.2931 38.9148 56.333 38.8941C56.7362 38.6862 57.1465 38.4818 57.5619 38.2793C57.6877 38.2181 57.816 38.1577 57.943 38.0971C58.2398 37.9547 58.5389 37.8137 58.8416 37.6741C58.9919 37.605 59.1433 37.5362 59.2949 37.4674C59.5926 37.3329 59.8934 37.1998 60.1967 37.0678C60.3407 37.0052 60.4839 36.942 60.6291 36.8799C61.0153 36.7148 61.4062 36.5519 61.8016 36.3907C61.862 36.366 61.9207 36.3407 61.9813 36.3163C62.3925 36.15 62.8081 35.9858 63.2294 35.8234C63.741 35.6266 64.0926 35.2665 64.2842 34.8453C58.1199 35.6811 47.0352 35.4598 47.0352 23.0557V45.035C47.341 44.7744 47.6533 44.5177 47.9698 44.2636C48.0689 44.1835 48.1706 44.1049 48.2711 44.0254Z" fill="white"/>
  <path opacity="0.32" d="M57.943 38.097C58.1949 37.9762 58.4499 37.8566 58.706 37.7378C54.3997 37.7454 49.4902 36.6824 47.0352 32.4253V45.0355C47.341 44.7749 47.6533 44.5182 47.9698 44.2641C48.0695 44.184 48.1708 44.1054 48.2717 44.0259C48.4946 43.8498 48.7199 43.6752 48.9485 43.5022C49.0639 43.4148 49.1799 43.3278 49.2964 43.2413C49.5264 43.0705 49.7598 42.9015 49.9951 42.7338C50.103 42.6569 50.21 42.5796 50.3189 42.5032C50.6427 42.2766 50.971 42.0522 51.3049 41.8312C51.3243 41.8183 51.3428 41.8054 51.3622 41.7925C51.7158 41.5591 52.0761 41.3294 52.4409 41.1019C52.5532 41.032 52.6678 40.9629 52.7813 40.8935C53.0399 40.7351 53.3008 40.5776 53.5648 40.422C53.6976 40.3436 53.8316 40.2659 53.9661 40.1883C54.2287 40.0367 54.4943 39.8867 54.7625 39.7379C54.8881 39.6682 55.0128 39.598 55.1394 39.529C55.4933 39.336 55.8516 39.1453 56.215 38.9572C56.2549 38.9364 56.2936 38.9153 56.3335 38.8945C56.7368 38.6867 57.1471 38.4823 57.5624 38.2798C57.6877 38.218 57.816 38.1576 57.943 38.097Z" fill="white"/>
  <path d="M17.4211 45.035V23.0557C13.1303 26.7146 7.79303 29.7395 1.22689 32.2673C-0.408962 32.8972 -0.408962 35.1935 1.22689 35.8234C7.79303 38.3515 13.1303 41.3761 17.4211 45.035Z" fill="white"/>
  <path d="M16.4866 23.8275C16.3869 23.9076 16.2855 23.9862 16.1847 24.0657C15.9614 24.2418 15.7362 24.4167 15.5076 24.5897C15.3924 24.6768 15.2767 24.7635 15.1602 24.85C14.9296 25.0211 14.696 25.1904 14.4604 25.3583C14.3528 25.435 14.2461 25.5122 14.1374 25.5884C13.8133 25.815 13.4853 26.0394 13.1514 26.2607C13.132 26.2736 13.1135 26.2865 13.0941 26.2994C12.7405 26.5328 12.3802 26.7625 12.0154 26.99C11.9034 27.0599 11.7894 27.1284 11.6762 27.1978C11.4167 27.3567 11.155 27.5146 10.8898 27.671C10.7579 27.7488 10.625 27.826 10.4916 27.903C10.2285 28.0549 9.96198 28.2051 9.69322 28.3545C9.56797 28.4242 9.44356 28.4941 9.3169 28.5632C8.96109 28.7573 8.60106 28.9488 8.2357 29.1381C8.19807 29.1577 8.16156 29.1777 8.12365 29.197C7.71953 29.4054 7.30839 29.6102 6.8922 29.8129C6.76835 29.8733 6.6417 29.9325 6.51673 29.9926C6.2182 30.1359 5.91714 30.278 5.61272 30.4184C5.46332 30.4872 5.31307 30.5557 5.16227 30.6237C4.86374 30.7588 4.56185 30.8921 4.25742 31.0247C4.11448 31.087 3.97238 31.1494 3.82803 31.2112C3.44133 31.3766 3.04984 31.5398 2.65359 31.7012C2.59349 31.7257 2.5348 31.7509 2.4747 31.7754C2.06356 31.9416 1.64765 32.1059 1.22668 32.2682C0.715004 32.4651 0.363403 32.8251 0.171875 33.2461C6.33615 32.4106 17.4209 32.6316 17.4209 45.036V23.0566C17.1156 23.3167 16.8031 23.5734 16.4866 23.8275Z" fill="white"/>
  <path opacity="0.32" d="M16.4866 23.8275C16.3869 23.9076 16.2855 23.9862 16.1847 24.0657C15.9614 24.2418 15.7362 24.4167 15.5076 24.5897C15.3924 24.6768 15.2767 24.7635 15.1602 24.85C14.9296 25.0211 14.696 25.1904 14.4604 25.3583C14.3528 25.435 14.2461 25.5122 14.1374 25.5884C13.8133 25.815 13.4853 26.0394 13.1514 26.2607C13.132 26.2736 13.1135 26.2865 13.0941 26.2994C12.7405 26.5328 12.3802 26.7625 12.0154 26.99C11.9034 27.0599 11.7894 27.1284 11.6762 27.1978C11.4167 27.3567 11.155 27.5146 10.8898 27.671C10.7579 27.7488 10.625 27.826 10.4916 27.903C10.2285 28.0549 9.96198 28.2051 9.69322 28.3545C9.56797 28.4242 9.44356 28.4941 9.3169 28.5632C8.96109 28.7573 8.60106 28.9488 8.2357 29.1381C8.19807 29.1577 8.16156 29.1777 8.12365 29.197C7.71953 29.4054 7.30839 29.6102 6.8922 29.8129C6.76835 29.8733 6.6417 29.9325 6.51673 29.9926C6.2182 30.1359 5.91714 30.278 5.61272 30.4184C5.46332 30.4872 5.31307 30.5557 5.16227 30.6237C4.86374 30.7588 4.56185 30.8921 4.25742 31.0247C4.11448 31.087 3.97238 31.1494 3.82803 31.2112C3.44133 31.3766 3.04984 31.5398 2.65359 31.7012C2.59349 31.7257 2.5348 31.7509 2.4747 31.7754C2.06356 31.9416 1.64765 32.1059 1.22668 32.2682C0.715004 32.4651 0.363403 32.8251 0.171875 33.2461C6.33615 32.4106 17.4209 32.6316 17.4209 45.036V23.0566C17.1156 23.3167 16.8031 23.5734 16.4866 23.8275Z" fill="white"/>
  <path d="M17.4212 35.7305V23.0557C17.1154 23.3163 16.8031 23.573 16.4866 23.8271C16.3869 23.9072 16.2855 23.9858 16.1847 24.0653C15.9614 24.2413 15.7362 24.4163 15.5076 24.5893C15.3925 24.6764 15.2768 24.7631 15.1602 24.8496C14.9297 25.0206 14.696 25.19 14.4604 25.3579C14.3528 25.4346 14.2461 25.5118 14.1374 25.5879C13.8133 25.8146 13.4853 26.039 13.1514 26.2602C13.132 26.2732 13.1135 26.2861 13.0941 26.299C12.7406 26.5324 12.3803 26.7621 12.0155 26.9896C11.9034 27.0595 11.7894 27.128 11.6762 27.1974C11.4167 27.3563 11.155 27.5142 10.8899 27.6706C10.7579 27.7484 10.6251 27.8256 10.4917 27.9026C10.2285 28.0545 9.962 28.2047 9.69325 28.3541C9.568 28.4238 9.44359 28.4937 9.31693 28.5628C8.96112 28.7568 8.60109 28.9484 8.23573 29.1377C8.19809 29.1573 8.16159 29.1773 8.12368 29.1966C7.8934 29.3154 7.65637 29.4311 7.42188 29.5477C11.4344 29.9122 15.5301 31.4419 17.4212 35.7305Z" fill="white"/>
</svg>